<svg id="Ebene_1" data-name="Ebene 1" xmlns="http://www.w3.org/2000/svg" xmlns:xlink="http://www.w3.org/1999/xlink" viewBox="0 0 538.14 429.73"><defs><style>.cls-1{fill:none;}.cls-2{clip-path:url(#clip-path);}.cls-3,.cls-9{fill:#ffd966;}.cls-4{fill:#cdae52;}.cls-10,.cls-11,.cls-4,.cls-5,.cls-6,.cls-7{fill-rule:evenodd;}.cls-5,.cls-8{fill:#ffe084;}.cls-6{fill:#767171;}.cls-7{fill:#adaaaa;}.cls-9{font-size:80.04px;font-family:Tahoma-Bold, Tahoma;font-weight:700;}.cls-10{fill:#9dc3e6;}.cls-10,.cls-11{opacity:0.64;}.cls-11{fill:#c4dbf0;}</style><clipPath id="clip-path" transform="translate(-274.2 -47.39)"><rect class="cls-1" width="960" height="540"/></clipPath></defs><title>Homopy_Yellow</title><g class="cls-2"><rect class="cls-3" y="197.11" width="139.02" height="138.06"/><polygon class="cls-4" points="139.02 197.11 185.04 151.09 185.04 289.15 139.02 335.17 139.02 197.11"/><polygon class="cls-5" points="0 197.11 46.02 151.09 185.04 151.09 139.02 197.11 0 197.11"/><g class="cls-2"><path class="cls-6" d="M310.18,99.49c.24,2.21,4.15,3.59,8.75,3.1s8.12-2.69,7.88-4.89l40.48,374.43c.24,2.21-3.29,4.4-7.88,4.89s-8.51-.89-8.75-3.1Z" transform="translate(-274.2 -47.39)"/><path class="cls-7" d="M310.18,99.49c-.24-2.21,3.29-4.4,7.88-4.89s8.51.89,8.75,3.1-3.29,4.4-7.88,4.89-8.51-.89-8.75-3.1" transform="translate(-274.2 -47.39)"/></g><rect class="cls-8" x="319.01" y="217.69" width="35.85" height="41.8" transform="translate(-299.22 -7.39) rotate(-6.55)"/><g class="cls-2"><path class="cls-6" d="M323.58,218.69l16.5-1.83c.31,2.75-3.14,5.39-7.7,5.9s-8.5-1.32-8.81-4.07" transform="translate(-274.2 -47.39)"/></g><text class="cls-9" transform="translate(203.07 259.21)">HomoPy</text><g class="cls-2"><path class="cls-6" d="M403.35,51c-.1,2.22,3.55,4.19,8.17,4.4S420,54,420.05,51.81L402.67,426.15c-.1,2.22-3.93,3.84-8.54,3.63s-8.27-2.18-8.17-4.4Z" transform="translate(-274.2 -47.39)"/><path class="cls-7" d="M403.35,51c.1-2.22,3.93-3.84,8.54-3.62s8.27,2.18,8.17,4.4-3.93,3.84-8.54,3.63-8.27-2.18-8.17-4.4" transform="translate(-274.2 -47.39)"/></g><rect class="cls-8" x="379.26" y="218.12" width="41.8" height="23.44" transform="translate(-119.59 573.17) rotate(-87.72)"/><g class="cls-2"><path class="cls-6" d="M396.22,208.38l16.59.72c-.12,2.77-3.93,4.85-8.51,4.65s-8.2-2.6-8.08-5.37" transform="translate(-274.2 -47.39)"/></g><g class="cls-2"><path class="cls-10" d="M405.66,120.53c-.92,3.42,5.84,8.22,15.11,10.71s17.52,1.74,18.44-1.68L362.51,414.4c-.92,3.42-9.18,4.17-18.44,1.68s-16-7.29-15.11-10.71Z" transform="translate(-274.2 -47.39)"/><path class="cls-11" d="M405.66,120.53c.92-3.42,9.18-4.17,18.44-1.68s16,7.29,15.11,10.71-9.18,4.17-18.44,1.68-16-7.29-15.11-10.71" transform="translate(-274.2 -47.39)"/></g><rect class="cls-8" x="375.59" y="221.44" width="34.28" height="39.97" transform="translate(-213.77 513.56) rotate(-75.46)"/><g class="cls-2"><path class="cls-10" d="M412.47,228.86l-33.66-8.92c-1.29,4.85,5.21,10.78,14.5,13.24s17.87.53,19.16-4.32" transform="translate(-274.2 -47.39)"/></g><rect class="cls-3" x="0.42" y="197.13" width="138.6" height="137.88"/></g></svg>