<?xml version="1.0" encoding="utf-8" standalone="no"?>
<!DOCTYPE svg PUBLIC "-//W3C//DTD SVG 1.1//EN"
  "http://www.w3.org/Graphics/SVG/1.1/DTD/svg11.dtd">
<svg xmlns:xlink="http://www.w3.org/1999/xlink" width="1843.2pt" height="951.12pt" viewBox="0 0 1843.2 951.12" xmlns="http://www.w3.org/2000/svg" version="1.1">
 <metadata>
  <rdf:RDF xmlns:dc="http://purl.org/dc/elements/1.1/" xmlns:cc="http://creativecommons.org/ns#" xmlns:rdf="http://www.w3.org/1999/02/22-rdf-syntax-ns#">
   <cc:Work>
    <dc:type rdf:resource="http://purl.org/dc/dcmitype/StillImage"/>
    <dc:date>2023-02-20T15:39:29.753754</dc:date>
    <dc:format>image/svg+xml</dc:format>
    <dc:creator>
     <cc:Agent>
      <dc:title>Matplotlib v3.5.2, https://matplotlib.org/</dc:title>
     </cc:Agent>
    </dc:creator>
   </cc:Work>
  </rdf:RDF>
 </metadata>
 <defs>
  <style type="text/css">*{stroke-linejoin: round; stroke-linecap: butt}</style>
 </defs>
 <g id="figure_1">
  <g id="patch_1">
   <path d="M 0 951.12 
L 1843.2 951.12 
L 1843.2 0 
L 0 0 
z
" style="fill: #ffffff"/>
  </g>
  <g id="axes_1">
   <g id="patch_2">
    <path d="M 1310.8212 480.3156 
C 1310.8212 432.229125 1301.349213 384.610231 1282.947316 340.184122 
C 1264.545419 295.758012 1237.571482 255.388663 1203.56921 221.38639 
C 1169.566937 187.384118 1129.197588 160.410181 1084.771478 142.008284 
C 1040.345369 123.606387 992.726475 114.1344 944.64 114.1344 
C 896.553525 114.1344 848.934631 123.606387 804.508522 142.008284 
C 760.082412 160.410181 719.713063 187.384118 685.71079 221.38639 
C 651.708518 255.388663 624.734581 295.758012 606.332684 340.184122 
C 587.930787 384.610231 578.4588 432.229125 578.4588 480.3156 
C 578.4588 528.402075 587.930787 576.020969 606.332684 620.447078 
C 624.734581 664.873188 651.708518 705.242537 685.71079 739.24481 
C 719.713063 773.247082 760.082412 800.221019 804.508522 818.622916 
C 848.934631 837.024813 896.553525 846.4968 944.64 846.4968 
C 992.726475 846.4968 1040.345369 837.024813 1084.771478 818.622916 
C 1129.197588 800.221019 1169.566937 773.247082 1203.56921 739.24481 
C 1237.571482 705.242537 1264.545419 664.873188 1282.947316 620.447078 
C 1301.349213 576.020969 1310.8212 528.402075 1310.8212 480.3156 
M 944.64 480.3156 
C 944.64 480.3156 944.64 480.3156 944.64 480.3156 
C 944.64 480.3156 944.64 480.3156 944.64 480.3156 
C 944.64 480.3156 944.64 480.3156 944.64 480.3156 
C 944.64 480.3156 944.64 480.3156 944.64 480.3156 
C 944.64 480.3156 944.64 480.3156 944.64 480.3156 
C 944.64 480.3156 944.64 480.3156 944.64 480.3156 
C 944.64 480.3156 944.64 480.3156 944.64 480.3156 
C 944.64 480.3156 944.64 480.3156 944.64 480.3156 
C 944.64 480.3156 944.64 480.3156 944.64 480.3156 
C 944.64 480.3156 944.64 480.3156 944.64 480.3156 
C 944.64 480.3156 944.64 480.3156 944.64 480.3156 
C 944.64 480.3156 944.64 480.3156 944.64 480.3156 
C 944.64 480.3156 944.64 480.3156 944.64 480.3156 
C 944.64 480.3156 944.64 480.3156 944.64 480.3156 
C 944.64 480.3156 944.64 480.3156 944.64 480.3156 
C 944.64 480.3156 944.64 480.3156 944.64 480.3156 
M 1310.8212 480.3156 
z
" style="fill: #ffffff"/>
   </g>
   <g id="matplotlib.axis_1">
    <g id="xtick_1">
     <g id="line2d_1">
      <path d="M 944.64 480.3156 
L 1310.8212 480.3156 
" clip-path="url(#pe24d317427)" style="fill: none; stroke: #b0b0b0; stroke-width: 0.8; stroke-linecap: square"/>
     </g>
     <g id="text_1">
      <!-- 0° -->
      <g transform="translate(1319.13995 483.074975)scale(0.1 -0.1)">
       <defs>
        <path id="DejaVuSans-30" d="M 2034 4250 
Q 1547 4250 1301 3770 
Q 1056 3291 1056 2328 
Q 1056 1369 1301 889 
Q 1547 409 2034 409 
Q 2525 409 2770 889 
Q 3016 1369 3016 2328 
Q 3016 3291 2770 3770 
Q 2525 4250 2034 4250 
z
M 2034 4750 
Q 2819 4750 3233 4129 
Q 3647 3509 3647 2328 
Q 3647 1150 3233 529 
Q 2819 -91 2034 -91 
Q 1250 -91 836 529 
Q 422 1150 422 2328 
Q 422 3509 836 4129 
Q 1250 4750 2034 4750 
z
" transform="scale(0.015625)"/>
        <path id="DejaVuSans-b0" d="M 1600 4347 
Q 1350 4347 1178 4173 
Q 1006 4000 1006 3750 
Q 1006 3503 1178 3333 
Q 1350 3163 1600 3163 
Q 1850 3163 2022 3333 
Q 2194 3503 2194 3750 
Q 2194 3997 2020 4172 
Q 1847 4347 1600 4347 
z
M 1600 4750 
Q 1800 4750 1984 4673 
Q 2169 4597 2303 4453 
Q 2447 4313 2519 4134 
Q 2591 3956 2591 3750 
Q 2591 3338 2302 3052 
Q 2013 2766 1594 2766 
Q 1172 2766 890 3047 
Q 609 3328 609 3750 
Q 609 4169 896 4459 
Q 1184 4750 1600 4750 
z
" transform="scale(0.015625)"/>
       </defs>
       <use xlink:href="#DejaVuSans-30"/>
       <use xlink:href="#DejaVuSans-b0" x="63.623047"/>
      </g>
     </g>
    </g>
    <g id="xtick_2">
     <g id="line2d_2">
      <path d="M 944.64 480.3156 
L 1203.56921 221.38639 
" clip-path="url(#pe24d317427)" style="fill: none; stroke: #b0b0b0; stroke-width: 0.8; stroke-linecap: square"/>
     </g>
     <g id="text_2">
      <!-- 45° -->
      <g transform="translate(1204.606205 214.24627)scale(0.1 -0.1)">
       <defs>
        <path id="DejaVuSans-34" d="M 2419 4116 
L 825 1625 
L 2419 1625 
L 2419 4116 
z
M 2253 4666 
L 3047 4666 
L 3047 1625 
L 3713 1625 
L 3713 1100 
L 3047 1100 
L 3047 0 
L 2419 0 
L 2419 1100 
L 313 1100 
L 313 1709 
L 2253 4666 
z
" transform="scale(0.015625)"/>
        <path id="DejaVuSans-35" d="M 691 4666 
L 3169 4666 
L 3169 4134 
L 1269 4134 
L 1269 2991 
Q 1406 3038 1543 3061 
Q 1681 3084 1819 3084 
Q 2600 3084 3056 2656 
Q 3513 2228 3513 1497 
Q 3513 744 3044 326 
Q 2575 -91 1722 -91 
Q 1428 -91 1123 -41 
Q 819 9 494 109 
L 494 744 
Q 775 591 1075 516 
Q 1375 441 1709 441 
Q 2250 441 2565 725 
Q 2881 1009 2881 1497 
Q 2881 1984 2565 2268 
Q 2250 2553 1709 2553 
Q 1456 2553 1204 2497 
Q 953 2441 691 2322 
L 691 4666 
z
" transform="scale(0.015625)"/>
       </defs>
       <use xlink:href="#DejaVuSans-34"/>
       <use xlink:href="#DejaVuSans-35" x="63.623047"/>
       <use xlink:href="#DejaVuSans-b0" x="127.246094"/>
      </g>
     </g>
    </g>
    <g id="xtick_3">
     <g id="line2d_3">
      <path d="M 944.64 480.3156 
L 944.64 114.1344 
" clip-path="url(#pe24d317427)" style="fill: none; stroke: #b0b0b0; stroke-width: 0.8; stroke-linecap: square"/>
     </g>
     <g id="text_3">
      <!-- 90° -->
      <g transform="translate(935.7775 102.893775)scale(0.1 -0.1)">
       <defs>
        <path id="DejaVuSans-39" d="M 703 97 
L 703 672 
Q 941 559 1184 500 
Q 1428 441 1663 441 
Q 2288 441 2617 861 
Q 2947 1281 2994 2138 
Q 2813 1869 2534 1725 
Q 2256 1581 1919 1581 
Q 1219 1581 811 2004 
Q 403 2428 403 3163 
Q 403 3881 828 4315 
Q 1253 4750 1959 4750 
Q 2769 4750 3195 4129 
Q 3622 3509 3622 2328 
Q 3622 1225 3098 567 
Q 2575 -91 1691 -91 
Q 1453 -91 1209 -44 
Q 966 3 703 97 
z
M 1959 2075 
Q 2384 2075 2632 2365 
Q 2881 2656 2881 3163 
Q 2881 3666 2632 3958 
Q 2384 4250 1959 4250 
Q 1534 4250 1286 3958 
Q 1038 3666 1038 3163 
Q 1038 2656 1286 2365 
Q 1534 2075 1959 2075 
z
" transform="scale(0.015625)"/>
       </defs>
       <use xlink:href="#DejaVuSans-39"/>
       <use xlink:href="#DejaVuSans-30" x="63.623047"/>
       <use xlink:href="#DejaVuSans-b0" x="127.246094"/>
      </g>
     </g>
    </g>
    <g id="xtick_4">
     <g id="line2d_4">
      <path d="M 944.64 480.3156 
L 685.71079 221.38639 
" clip-path="url(#pe24d317427)" style="fill: none; stroke: #b0b0b0; stroke-width: 0.8; stroke-linecap: square"/>
     </g>
     <g id="text_4">
      <!-- 135° -->
      <g transform="translate(663.767545 214.24627)scale(0.1 -0.1)">
       <defs>
        <path id="DejaVuSans-31" d="M 794 531 
L 1825 531 
L 1825 4091 
L 703 3866 
L 703 4441 
L 1819 4666 
L 2450 4666 
L 2450 531 
L 3481 531 
L 3481 0 
L 794 0 
L 794 531 
z
" transform="scale(0.015625)"/>
        <path id="DejaVuSans-33" d="M 2597 2516 
Q 3050 2419 3304 2112 
Q 3559 1806 3559 1356 
Q 3559 666 3084 287 
Q 2609 -91 1734 -91 
Q 1441 -91 1130 -33 
Q 819 25 488 141 
L 488 750 
Q 750 597 1062 519 
Q 1375 441 1716 441 
Q 2309 441 2620 675 
Q 2931 909 2931 1356 
Q 2931 1769 2642 2001 
Q 2353 2234 1838 2234 
L 1294 2234 
L 1294 2753 
L 1863 2753 
Q 2328 2753 2575 2939 
Q 2822 3125 2822 3475 
Q 2822 3834 2567 4026 
Q 2313 4219 1838 4219 
Q 1578 4219 1281 4162 
Q 984 4106 628 3988 
L 628 4550 
Q 988 4650 1302 4700 
Q 1616 4750 1894 4750 
Q 2613 4750 3031 4423 
Q 3450 4097 3450 3541 
Q 3450 3153 3228 2886 
Q 3006 2619 2597 2516 
z
" transform="scale(0.015625)"/>
       </defs>
       <use xlink:href="#DejaVuSans-31"/>
       <use xlink:href="#DejaVuSans-33" x="63.623047"/>
       <use xlink:href="#DejaVuSans-35" x="127.246094"/>
       <use xlink:href="#DejaVuSans-b0" x="190.869141"/>
      </g>
     </g>
    </g>
    <g id="xtick_5">
     <g id="line2d_5">
      <path d="M 944.64 480.3156 
L 578.4588 480.3156 
" clip-path="url(#pe24d317427)" style="fill: none; stroke: #b0b0b0; stroke-width: 0.8; stroke-linecap: square"/>
     </g>
     <g id="text_5">
      <!-- 180° -->
      <g transform="translate(552.41505 483.074975)scale(0.1 -0.1)">
       <defs>
        <path id="DejaVuSans-38" d="M 2034 2216 
Q 1584 2216 1326 1975 
Q 1069 1734 1069 1313 
Q 1069 891 1326 650 
Q 1584 409 2034 409 
Q 2484 409 2743 651 
Q 3003 894 3003 1313 
Q 3003 1734 2745 1975 
Q 2488 2216 2034 2216 
z
M 1403 2484 
Q 997 2584 770 2862 
Q 544 3141 544 3541 
Q 544 4100 942 4425 
Q 1341 4750 2034 4750 
Q 2731 4750 3128 4425 
Q 3525 4100 3525 3541 
Q 3525 3141 3298 2862 
Q 3072 2584 2669 2484 
Q 3125 2378 3379 2068 
Q 3634 1759 3634 1313 
Q 3634 634 3220 271 
Q 2806 -91 2034 -91 
Q 1263 -91 848 271 
Q 434 634 434 1313 
Q 434 1759 690 2068 
Q 947 2378 1403 2484 
z
M 1172 3481 
Q 1172 3119 1398 2916 
Q 1625 2713 2034 2713 
Q 2441 2713 2670 2916 
Q 2900 3119 2900 3481 
Q 2900 3844 2670 4047 
Q 2441 4250 2034 4250 
Q 1625 4250 1398 4047 
Q 1172 3844 1172 3481 
z
" transform="scale(0.015625)"/>
       </defs>
       <use xlink:href="#DejaVuSans-31"/>
       <use xlink:href="#DejaVuSans-38" x="63.623047"/>
       <use xlink:href="#DejaVuSans-30" x="127.246094"/>
       <use xlink:href="#DejaVuSans-b0" x="190.869141"/>
      </g>
     </g>
    </g>
    <g id="xtick_6">
     <g id="line2d_6">
      <path d="M 944.64 480.3156 
L 685.71079 739.24481 
" clip-path="url(#pe24d317427)" style="fill: none; stroke: #b0b0b0; stroke-width: 0.8; stroke-linecap: square"/>
     </g>
     <g id="text_6">
      <!-- 225° -->
      <g transform="translate(663.767545 751.90368)scale(0.1 -0.1)">
       <defs>
        <path id="DejaVuSans-32" d="M 1228 531 
L 3431 531 
L 3431 0 
L 469 0 
L 469 531 
Q 828 903 1448 1529 
Q 2069 2156 2228 2338 
Q 2531 2678 2651 2914 
Q 2772 3150 2772 3378 
Q 2772 3750 2511 3984 
Q 2250 4219 1831 4219 
Q 1534 4219 1204 4116 
Q 875 4013 500 3803 
L 500 4441 
Q 881 4594 1212 4672 
Q 1544 4750 1819 4750 
Q 2544 4750 2975 4387 
Q 3406 4025 3406 3419 
Q 3406 3131 3298 2873 
Q 3191 2616 2906 2266 
Q 2828 2175 2409 1742 
Q 1991 1309 1228 531 
z
" transform="scale(0.015625)"/>
       </defs>
       <use xlink:href="#DejaVuSans-32"/>
       <use xlink:href="#DejaVuSans-32" x="63.623047"/>
       <use xlink:href="#DejaVuSans-35" x="127.246094"/>
       <use xlink:href="#DejaVuSans-b0" x="190.869141"/>
      </g>
     </g>
    </g>
    <g id="xtick_7">
     <g id="line2d_7">
      <path d="M 944.64 480.3156 
L 944.64 846.4968 
" clip-path="url(#pe24d317427)" style="fill: none; stroke: #b0b0b0; stroke-width: 0.8; stroke-linecap: square"/>
     </g>
     <g id="text_7">
      <!-- 270° -->
      <g transform="translate(932.59625 863.256175)scale(0.1 -0.1)">
       <defs>
        <path id="DejaVuSans-37" d="M 525 4666 
L 3525 4666 
L 3525 4397 
L 1831 0 
L 1172 0 
L 2766 4134 
L 525 4134 
L 525 4666 
z
" transform="scale(0.015625)"/>
       </defs>
       <use xlink:href="#DejaVuSans-32"/>
       <use xlink:href="#DejaVuSans-37" x="63.623047"/>
       <use xlink:href="#DejaVuSans-30" x="127.246094"/>
       <use xlink:href="#DejaVuSans-b0" x="190.869141"/>
      </g>
     </g>
    </g>
    <g id="xtick_8">
     <g id="line2d_8">
      <path d="M 944.64 480.3156 
L 1203.56921 739.24481 
" clip-path="url(#pe24d317427)" style="fill: none; stroke: #b0b0b0; stroke-width: 0.8; stroke-linecap: square"/>
     </g>
     <g id="text_8">
      <!-- 315° -->
      <g transform="translate(1201.424955 751.90368)scale(0.1 -0.1)">
       <use xlink:href="#DejaVuSans-33"/>
       <use xlink:href="#DejaVuSans-31" x="63.623047"/>
       <use xlink:href="#DejaVuSans-35" x="127.246094"/>
       <use xlink:href="#DejaVuSans-b0" x="190.869141"/>
      </g>
     </g>
    </g>
   </g>
   <g id="matplotlib.axis_2">
    <g id="ytick_1">
     <g id="line2d_9">
      <path d="M 1022.870632 480.3156 
C 1022.870632 470.042448 1020.847045 459.869189 1016.915679 450.378033 
C 1012.984314 440.886878 1007.221626 432.262406 999.95741 424.99819 
C 992.693194 417.733974 984.068722 411.971286 974.577567 408.039921 
C 965.086411 404.108555 954.913152 402.084968 944.64 402.084968 
C 934.366848 402.084968 924.193589 404.108555 914.702433 408.039921 
C 905.211278 411.971286 896.586806 417.733974 889.32259 424.99819 
C 882.058374 432.262406 876.295686 440.886878 872.364321 450.378033 
C 868.432955 459.869189 866.409368 470.042448 866.409368 480.3156 
C 866.409368 490.588752 868.432955 500.762011 872.364321 510.253167 
C 876.295686 519.744322 882.058374 528.368794 889.32259 535.63301 
C 896.586806 542.897226 905.211278 548.659914 914.702433 552.591279 
C 924.193589 556.522645 934.366848 558.546232 944.64 558.546232 
C 954.913152 558.546232 965.086411 556.522645 974.577567 552.591279 
C 984.068722 548.659914 992.693194 542.897226 999.95741 535.63301 
C 1007.221626 528.368794 1012.984314 519.744322 1016.915679 510.253167 
C 1020.847045 500.762011 1022.870632 490.588752 1022.870632 480.3156 
" clip-path="url(#pe24d317427)" style="fill: none; stroke: #b0b0b0; stroke-width: 0.8; stroke-linecap: square"/>
     </g>
     <g id="text_9">
      <!-- 0.5 -->
      <g transform="translate(1016.915679 448.298346)scale(0.1 -0.1)">
       <defs>
        <path id="DejaVuSans-2e" d="M 684 794 
L 1344 794 
L 1344 0 
L 684 0 
L 684 794 
z
" transform="scale(0.015625)"/>
       </defs>
       <use xlink:href="#DejaVuSans-30"/>
       <use xlink:href="#DejaVuSans-2e" x="63.623047"/>
       <use xlink:href="#DejaVuSans-35" x="95.410156"/>
      </g>
     </g>
    </g>
    <g id="ytick_2">
     <g id="line2d_10">
      <path d="M 1101.101263 480.3156 
C 1101.101263 459.769295 1097.054089 439.422777 1089.191359 420.440467 
C 1081.328628 401.458156 1069.803252 384.209211 1055.27482 369.68078 
C 1040.746389 355.152348 1023.497444 343.626972 1004.515133 335.764241 
C 985.532823 327.901511 965.186305 323.854337 944.64 323.854337 
C 924.093695 323.854337 903.747177 327.901511 884.764867 335.764241 
C 865.782556 343.626972 848.533611 355.152348 834.00518 369.68078 
C 819.476748 384.209211 807.951372 401.458156 800.088641 420.440467 
C 792.225911 439.422777 788.178737 459.769295 788.178737 480.3156 
C 788.178737 500.861905 792.225911 521.208423 800.088641 540.190733 
C 807.951372 559.173044 819.476748 576.421989 834.00518 590.95042 
C 848.533611 605.478852 865.782556 617.004228 884.764867 624.866959 
C 903.747177 632.729689 924.093695 636.776863 944.64 636.776863 
C 965.186305 636.776863 985.532823 632.729689 1004.515133 624.866959 
C 1023.497444 617.004228 1040.746389 605.478852 1055.27482 590.95042 
C 1069.803252 576.421989 1081.328628 559.173044 1089.191359 540.190733 
C 1097.054089 521.208423 1101.101263 500.861905 1101.101263 480.3156 
" clip-path="url(#pe24d317427)" style="fill: none; stroke: #b0b0b0; stroke-width: 0.8; stroke-linecap: square"/>
     </g>
     <g id="text_10">
      <!-- 1.0 -->
      <g transform="translate(1089.191359 418.360779)scale(0.1 -0.1)">
       <use xlink:href="#DejaVuSans-31"/>
       <use xlink:href="#DejaVuSans-2e" x="63.623047"/>
       <use xlink:href="#DejaVuSans-30" x="95.410156"/>
      </g>
     </g>
    </g>
    <g id="ytick_3">
     <g id="line2d_11">
      <path d="M 1179.331895 480.3156 
C 1179.331895 449.496143 1173.261134 418.976366 1161.467038 390.5029 
C 1149.672943 362.029434 1132.384878 336.156017 1110.592231 314.363369 
C 1088.799583 292.570722 1062.926166 275.282657 1034.4527 263.488562 
C 1005.979234 251.694466 975.459457 245.623705 944.64 245.623705 
C 913.820543 245.623705 883.300766 251.694466 854.8273 263.488562 
C 826.353834 275.282657 800.480417 292.570722 778.687769 314.363369 
C 756.895122 336.156017 739.607057 362.029434 727.812962 390.5029 
C 716.018866 418.976366 709.948105 449.496143 709.948105 480.3156 
C 709.948105 511.135057 716.018866 541.654834 727.812962 570.1283 
C 739.607057 598.601766 756.895122 624.475183 778.687769 646.267831 
C 800.480417 668.060478 826.353834 685.348543 854.8273 697.142638 
C 883.300766 708.936734 913.820543 715.007495 944.64 715.007495 
C 975.459457 715.007495 1005.979234 708.936734 1034.4527 697.142638 
C 1062.926166 685.348543 1088.799583 668.060478 1110.592231 646.267831 
C 1132.384878 624.475183 1149.672943 598.601766 1161.467038 570.1283 
C 1173.261134 541.654834 1179.331895 511.135057 1179.331895 480.3156 
" clip-path="url(#pe24d317427)" style="fill: none; stroke: #b0b0b0; stroke-width: 0.8; stroke-linecap: square"/>
     </g>
     <g id="text_11">
      <!-- 1.5 -->
      <g transform="translate(1161.467038 388.423212)scale(0.1 -0.1)">
       <use xlink:href="#DejaVuSans-31"/>
       <use xlink:href="#DejaVuSans-2e" x="63.623047"/>
       <use xlink:href="#DejaVuSans-35" x="95.410156"/>
      </g>
     </g>
    </g>
    <g id="ytick_4">
     <g id="line2d_12">
      <path d="M 1257.562527 480.3156 
C 1257.562527 439.22299 1249.468179 398.529954 1233.742718 360.565333 
C 1218.017257 322.600712 1194.966504 288.102822 1165.909641 259.045959 
C 1136.852778 229.989096 1102.354888 206.938343 1064.390267 191.212882 
C 1026.425646 175.487421 985.73261 167.393073 944.64 167.393073 
C 903.54739 167.393073 862.854354 175.487421 824.889733 191.212882 
C 786.925112 206.938343 752.427222 229.989096 723.370359 259.045959 
C 694.313496 288.102822 671.262743 322.600712 655.537282 360.565333 
C 639.811821 398.529954 631.717473 439.22299 631.717473 480.3156 
C 631.717473 521.40821 639.811821 562.101246 655.537282 600.065867 
C 671.262743 638.030488 694.313496 672.528378 723.370359 701.585241 
C 752.427222 730.642104 786.925112 753.692857 824.889733 769.418318 
C 862.854354 785.143779 903.54739 793.238127 944.64 793.238127 
C 985.73261 793.238127 1026.425646 785.143779 1064.390267 769.418318 
C 1102.354888 753.692857 1136.852778 730.642104 1165.909641 701.585241 
C 1194.966504 672.528378 1218.017257 638.030488 1233.742718 600.065867 
C 1249.468179 562.101246 1257.562527 521.40821 1257.562527 480.3156 
" clip-path="url(#pe24d317427)" style="fill: none; stroke: #b0b0b0; stroke-width: 0.8; stroke-linecap: square"/>
     </g>
     <g id="text_12">
      <!-- 2.0 -->
      <g transform="translate(1233.742718 358.485646)scale(0.1 -0.1)">
       <use xlink:href="#DejaVuSans-32"/>
       <use xlink:href="#DejaVuSans-2e" x="63.623047"/>
       <use xlink:href="#DejaVuSans-30" x="95.410156"/>
      </g>
     </g>
    </g>
    <g id="text_13">
     <!-- 1e10 -->
     <g transform="translate(578.4588 111.1344)scale(0.1 -0.1)">
      <defs>
       <path id="DejaVuSans-65" d="M 3597 1894 
L 3597 1613 
L 953 1613 
Q 991 1019 1311 708 
Q 1631 397 2203 397 
Q 2534 397 2845 478 
Q 3156 559 3463 722 
L 3463 178 
Q 3153 47 2828 -22 
Q 2503 -91 2169 -91 
Q 1331 -91 842 396 
Q 353 884 353 1716 
Q 353 2575 817 3079 
Q 1281 3584 2069 3584 
Q 2775 3584 3186 3129 
Q 3597 2675 3597 1894 
z
M 3022 2063 
Q 3016 2534 2758 2815 
Q 2500 3097 2075 3097 
Q 1594 3097 1305 2825 
Q 1016 2553 972 2059 
L 3022 2063 
z
" transform="scale(0.015625)"/>
      </defs>
      <use xlink:href="#DejaVuSans-31"/>
      <use xlink:href="#DejaVuSans-65" x="63.623047"/>
      <use xlink:href="#DejaVuSans-31" x="125.146484"/>
      <use xlink:href="#DejaVuSans-30" x="188.769531"/>
     </g>
    </g>
   </g>
   <g id="line2d_13">
    <path d="M 1276.006379 480.3156 
L 1279.669666 475.052533 
L 1282.947691 469.683852 
L 1285.813541 464.226264 
L 1288.241716 458.698012 
L 1290.208546 453.118766 
L 1291.692605 447.50947 
L 1292.675125 441.892164 
L 1293.140391 436.289762 
L 1293.0761 430.725799 
L 1292.473684 425.224157 
L 1291.328572 419.808758 
L 1289.640386 414.503257 
L 1287.413064 409.330711 
L 1284.654901 404.313265 
L 1281.378499 399.471839 
L 1277.600631 394.82584 
L 1273.342026 390.392901 
L 1268.627066 386.188656 
L 1263.483418 382.226557 
L 1257.941604 378.517738 
L 1252.034526 375.07093 
L 1245.796961 371.892423 
L 1239.265032 368.986078 
L 1232.47569 366.353389 
L 1225.466193 363.993582 
L 1218.273626 361.903756 
L 1210.934446 360.079047 
L 1203.484075 358.512824 
L 1195.956544 357.196896 
L 1188.384195 356.121729 
L 1180.797437 355.276673 
L 1173.224556 354.650177 
L 1165.691586 354.230001 
L 1158.222227 354.003423 
L 1150.837808 353.957421 
L 1143.557298 354.078844 
L 1136.397347 354.354566 
L 1129.372358 354.771619 
L 1122.494584 355.317304 
L 1115.774247 355.979292 
L 1109.219661 356.745695 
L 1096.63233 358.546782 
L 1084.766417 360.636334 
L 1073.634419 362.93971 
L 1063.231898 365.392055 
L 1053.541471 367.938 
L 1044.536263 370.531041 
L 1036.182821 373.132728 
L 1024.791637 376.984732 
L 1014.64613 380.706953 
L 1005.608814 384.244122 
L 995.054299 388.612331 
L 979.900509 395.189201 
L 967.865324 400.373509 
L 960.598159 403.256564 
L 955.344889 405.099132 
L 950.445364 406.551455 
L 946.931572 407.396588 
L 943.504626 408.041361 
L 940.121325 408.49332 
L 936.740148 408.759638 
L 933.320521 408.847224 
L 929.822143 408.762877 
L 924.964743 408.394972 
L 919.795719 407.751393 
L 912.736422 406.590782 
L 901.336672 404.396784 
L 885.337918 401.332642 
L 875.809436 399.725364 
L 867.866734 398.560375 
L 859.166273 397.485796 
L 849.640965 396.562684 
L 839.22657 395.863518 
L 831.760498 395.563273 
L 823.857986 395.428578 
L 815.506411 395.490687 
L 806.696376 395.783639 
L 797.422538 396.344242 
L 787.684575 397.21198 
L 777.488286 398.42882 
L 766.846846 400.038913 
L 755.782216 402.088144 
L 744.326707 404.623514 
L 738.465722 406.088292 
L 732.524704 407.692302 
L 726.511391 409.441319 
L 720.434509 411.340985 
L 714.303833 413.396757 
L 708.130248 415.613853 
L 701.925806 417.997187 
L 695.703777 420.5513 
L 689.478701 423.280292 
L 683.266427 426.187735 
L 677.084149 429.276592 
L 670.950423 432.549122 
L 664.885176 436.006789 
L 658.909698 439.650156 
L 653.04661 443.478788 
L 647.31981 447.491145 
L 641.754398 451.684481 
L 636.376566 456.054742 
L 631.213456 460.596473 
L 626.292988 465.302736 
L 621.64365 470.165031 
L 617.294247 475.173242 
L 613.273621 480.3156 
L 609.610334 485.578667 
L 606.332309 490.947348 
L 603.466459 496.404936 
L 601.038284 501.933188 
L 599.071454 507.512434 
L 597.587395 513.12173 
L 596.604875 518.739036 
L 596.139609 524.341438 
L 596.2039 529.905401 
L 596.806316 535.407043 
L 597.951428 540.822442 
L 599.639614 546.127943 
L 601.866936 551.300489 
L 604.625099 556.317935 
L 607.901501 561.159361 
L 611.679369 565.80536 
L 615.937974 570.238299 
L 620.652934 574.442544 
L 625.796582 578.404643 
L 631.338396 582.113462 
L 637.245474 585.56027 
L 643.483039 588.738777 
L 650.014968 591.645122 
L 656.80431 594.277811 
L 663.813807 596.637618 
L 671.006374 598.727444 
L 678.345554 600.552153 
L 685.795925 602.118376 
L 693.323456 603.434304 
L 700.895805 604.509471 
L 708.482563 605.354527 
L 716.055444 605.981023 
L 723.588414 606.401199 
L 731.057773 606.627777 
L 738.442192 606.673779 
L 745.722702 606.552356 
L 752.882653 606.276634 
L 759.907642 605.859581 
L 766.785416 605.313896 
L 773.505753 604.651908 
L 780.060339 603.885505 
L 792.64767 602.084418 
L 804.513583 599.994866 
L 815.645581 597.69149 
L 826.048102 595.239145 
L 835.738529 592.6932 
L 844.743737 590.100159 
L 853.097179 587.498472 
L 864.488363 583.646468 
L 874.63387 579.924247 
L 883.671186 576.387078 
L 894.225701 572.018869 
L 909.379491 565.441999 
L 921.414676 560.257691 
L 928.681841 557.374636 
L 933.935111 555.532068 
L 938.834636 554.079745 
L 942.348428 553.234612 
L 945.775374 552.589839 
L 949.158675 552.13788 
L 952.539852 551.871562 
L 955.959479 551.783976 
L 959.457857 551.868323 
L 964.315257 552.236228 
L 969.484281 552.879807 
L 976.543578 554.040418 
L 987.943328 556.234416 
L 1003.942082 559.298558 
L 1013.470564 560.905836 
L 1021.413266 562.070825 
L 1030.113727 563.145404 
L 1039.639035 564.068516 
L 1050.05343 564.767682 
L 1057.519502 565.067927 
L 1065.422014 565.202622 
L 1073.773589 565.140513 
L 1082.583624 564.847561 
L 1091.857462 564.286958 
L 1101.595425 563.41922 
L 1111.791714 562.20238 
L 1122.433154 560.592287 
L 1133.497784 558.543056 
L 1144.953293 556.007686 
L 1150.814278 554.542908 
L 1156.755296 552.938898 
L 1162.768609 551.189881 
L 1168.845491 549.290215 
L 1174.976167 547.234443 
L 1181.149752 545.017347 
L 1187.354194 542.634013 
L 1193.576223 540.0799 
L 1199.801299 537.350908 
L 1206.013573 534.443465 
L 1212.195851 531.354608 
L 1218.329577 528.082078 
L 1224.394824 524.624411 
L 1230.370302 520.981044 
L 1236.23339 517.152412 
L 1241.96019 513.140055 
L 1247.525602 508.946719 
L 1252.903434 504.576458 
L 1258.066544 500.034727 
L 1262.987012 495.328464 
L 1267.63635 490.466169 
L 1271.985753 485.457958 
L 1276.006379 480.3156 
L 1276.006379 480.3156 
" clip-path="url(#pe24d317427)" style="fill: none; stroke: #1f77b4; stroke-width: 1.5; stroke-linecap: square"/>
   </g>
   <g id="line2d_14">
    <path d="M 1248.008557 480.3156 
L 1250.344505 476.473802 
L 1252.435995 472.578214 
L 1254.271217 468.637245 
L 1255.83921 464.659834 
L 1257.129994 460.655396 
L 1258.13469 456.633764 
L 1258.845646 452.605118 
L 1259.256537 448.579912 
L 1259.362461 444.568786 
L 1259.16002 440.582481 
L 1258.647377 436.631751 
L 1257.824302 432.727259 
L 1256.692191 428.879493 
L 1255.254068 425.098666 
L 1253.514566 421.394625 
L 1251.479882 417.776772 
L 1249.15772 414.253974 
L 1246.557205 410.834498 
L 1243.688787 407.525945 
L 1240.56413 404.335198 
L 1237.19598 401.268372 
L 1233.598032 398.330792 
L 1229.784786 395.526962 
L 1225.771395 392.860563 
L 1221.573517 390.334446 
L 1217.207165 387.950648 
L 1212.688557 385.71041 
L 1208.033979 383.614208 
L 1203.259649 381.661785 
L 1198.381596 379.852195 
L 1193.415542 378.183854 
L 1188.376803 376.654586 
L 1180.71467 374.615387 
L 1172.969726 372.871787 
L 1165.18613 371.410687 
L 1157.404349 370.217417 
L 1149.660947 369.276141 
L 1141.988505 368.570232 
L 1134.415624 368.082609 
L 1126.967019 367.79604 
L 1119.663679 367.693396 
L 1110.18158 367.813658 
L 1101.020886 368.192667 
L 1092.204854 368.794129 
L 1083.748701 369.584239 
L 1075.660763 370.531907 
L 1066.072089 371.895233 
L 1057.057255 373.411649 
L 1048.602263 375.038631 
L 1039.166105 377.086138 
L 1030.462759 379.188459 
L 1021.169237 381.654702 
L 1011.581546 384.42849 
L 1000.966559 387.747491 
L 989.088959 391.707643 
L 965.335174 399.71322 
L 958.616709 401.691847 
L 952.915893 403.131117 
L 947.992488 404.141186 
L 943.217897 404.879636 
L 938.974928 405.322682 
L 934.243167 405.58129 
L 929.413407 405.607998 
L 924.403224 405.41873 
L 918.583091 404.982702 
L 911.131569 404.197938 
L 896.539906 402.374069 
L 882.940109 400.77258 
L 872.750185 399.79816 
L 863.453168 399.128768 
L 854.37561 398.698215 
L 845.745744 398.503156 
L 836.425729 398.533153 
L 827.854913 398.784575 
L 818.721418 399.290973 
L 810.666637 399.943528 
L 802.20086 400.839506 
L 793.321533 402.013533 
L 784.031977 403.502947 
L 776.311888 404.948271 
L 768.34559 406.642347 
L 760.147143 408.607319 
L 751.735735 410.865791 
L 743.136437 413.440493 
L 734.38098 416.353848 
L 727.735169 418.774134 
L 721.042889 421.405662 
L 714.326392 424.256359 
L 707.610797 427.333296 
L 700.924196 430.642459 
L 694.297693 434.188507 
L 687.765406 437.974513 
L 681.36438 442.001692 
L 675.134432 446.269129 
L 669.117893 450.773504 
L 665.247321 453.905216 
L 661.504955 457.13716 
L 657.904677 460.466261 
L 654.460544 463.888825 
L 651.186693 467.400521 
L 648.097241 470.996368 
L 645.206168 474.670737 
L 642.5272 478.417344 
L 640.073679 482.229272 
L 637.858436 486.098981 
L 635.893654 490.018345 
L 634.190734 493.978683 
L 632.760165 497.970812 
L 631.611389 501.9851 
L 630.752687 506.01153 
L 630.19106 510.039776 
L 629.932132 514.059281 
L 629.980062 518.059342 
L 630.337474 522.0292 
L 631.005406 525.958136 
L 631.983275 529.83556 
L 633.268871 533.651113 
L 634.858362 537.394752 
L 636.746325 541.056842 
L 638.925802 544.628241 
L 641.388367 548.100371 
L 644.124218 551.465291 
L 647.122284 554.715755 
L 650.370344 557.845257 
L 653.855159 560.848075 
L 657.562612 563.719291 
L 661.47786 566.454814 
L 665.585477 569.051377 
L 669.86961 571.506539 
L 674.314125 573.818663 
L 678.902753 575.986896 
L 683.619225 578.011133 
L 688.447403 579.89198 
L 693.371399 581.630709 
L 698.375681 583.229207 
L 705.999803 585.369518 
L 713.722224 587.210285 
L 721.49762 588.763991 
L 729.284265 590.044828 
L 737.044277 591.068286 
L 744.743745 591.850769 
L 752.352749 592.409241 
L 759.845292 592.760914 
L 767.199163 592.922979 
L 776.756925 592.873333 
L 786.000491 592.555517 
L 794.904409 592.006398 
L 803.451562 591.260426 
L 811.632002 590.349386 
L 821.336392 589.022353 
L 830.465121 587.532948 
L 839.03062 585.92498 
L 848.593357 583.891399 
L 857.415531 581.79503 
L 866.836978 579.327762 
L 876.556313 576.544847 
L 886.302154 573.530798 
L 897.621342 569.797041 
L 925.683471 560.382514 
L 931.727766 558.651446 
L 936.86578 557.3865 
L 941.770169 556.404154 
L 946.534819 555.692166 
L 950.776181 555.271799 
L 955.514045 555.037053 
L 960.358123 555.032689 
L 965.390934 555.242604 
L 971.798549 555.751371 
L 979.976257 556.650264 
L 1011.747644 560.40486 
L 1021.580808 561.224438 
L 1030.26502 561.741294 
L 1039.753902 562.068715 
L 1048.772591 562.142217 
L 1057.070733 562.001309 
L 1065.920188 561.628281 
L 1075.34244 560.976059 
L 1083.64323 560.18145 
L 1092.357175 559.122974 
L 1101.483474 557.764363 
L 1109.076593 556.435326 
L 1116.921252 554.868355 
L 1125.005685 553.041635 
L 1133.313361 550.932755 
L 1141.822245 548.519001 
L 1150.504036 545.777737 
L 1157.107868 543.493543 
L 1163.771469 541.003769 
L 1170.474433 538.300027 
L 1177.193566 535.374653 
L 1183.902765 532.220913 
L 1190.572939 528.833233 
L 1197.171974 525.207454 
L 1203.664765 521.341092 
L 1210.013319 517.233612 
L 1216.17695 512.886701 
L 1220.162107 509.857696 
L 1224.032679 506.725984 
L 1227.775045 503.49404 
L 1231.375323 500.164939 
L 1234.819456 496.742375 
L 1238.093307 493.230679 
L 1241.182759 489.634832 
L 1244.073832 485.960463 
L 1246.7528 482.213856 
L 1248.008557 480.3156 
L 1248.008557 480.3156 
" clip-path="url(#pe24d317427)" style="fill: none; stroke: #ff7f0e; stroke-width: 1.5; stroke-linecap: square"/>
   </g>
   <g id="patch_3">
    <path d="M 1310.8212 480.3156 
C 1310.8212 432.229125 1301.349213 384.610231 1282.947316 340.184122 
C 1264.545419 295.758012 1237.571482 255.388663 1203.56921 221.38639 
C 1169.566937 187.384118 1129.197588 160.410181 1084.771478 142.008284 
C 1040.345369 123.606387 992.726475 114.1344 944.64 114.1344 
C 896.553525 114.1344 848.934631 123.606387 804.508522 142.008284 
C 760.082412 160.410181 719.713063 187.384118 685.71079 221.38639 
C 651.708518 255.388663 624.734581 295.758012 606.332684 340.184122 
C 587.930787 384.610231 578.4588 432.229125 578.4588 480.3156 
C 578.4588 528.402075 587.930787 576.020969 606.332684 620.447078 
C 624.734581 664.873188 651.708518 705.242537 685.71079 739.24481 
C 719.713063 773.247082 760.082412 800.221019 804.508522 818.622916 
C 848.934631 837.024813 896.553525 846.4968 944.64 846.4968 
C 992.726475 846.4968 1040.345369 837.024813 1084.771478 818.622916 
C 1129.197588 800.221019 1169.566937 773.247082 1203.56921 739.24481 
C 1237.571482 705.242537 1264.545419 664.873188 1282.947316 620.447078 
C 1301.349213 576.020969 1310.8212 528.402075 1310.8212 480.3156 
" style="fill: none; stroke: #000000; stroke-width: 0.8; stroke-linejoin: miter; stroke-linecap: square"/>
   </g>
   <g id="text_14">
    <!-- Young's modulus over angle -->
    <g transform="translate(860.439375 86.799713)scale(0.12 -0.12)">
     <defs>
      <path id="DejaVuSans-59" d="M -13 4666 
L 666 4666 
L 1959 2747 
L 3244 4666 
L 3922 4666 
L 2272 2222 
L 2272 0 
L 1638 0 
L 1638 2222 
L -13 4666 
z
" transform="scale(0.015625)"/>
      <path id="DejaVuSans-6f" d="M 1959 3097 
Q 1497 3097 1228 2736 
Q 959 2375 959 1747 
Q 959 1119 1226 758 
Q 1494 397 1959 397 
Q 2419 397 2687 759 
Q 2956 1122 2956 1747 
Q 2956 2369 2687 2733 
Q 2419 3097 1959 3097 
z
M 1959 3584 
Q 2709 3584 3137 3096 
Q 3566 2609 3566 1747 
Q 3566 888 3137 398 
Q 2709 -91 1959 -91 
Q 1206 -91 779 398 
Q 353 888 353 1747 
Q 353 2609 779 3096 
Q 1206 3584 1959 3584 
z
" transform="scale(0.015625)"/>
      <path id="DejaVuSans-75" d="M 544 1381 
L 544 3500 
L 1119 3500 
L 1119 1403 
Q 1119 906 1312 657 
Q 1506 409 1894 409 
Q 2359 409 2629 706 
Q 2900 1003 2900 1516 
L 2900 3500 
L 3475 3500 
L 3475 0 
L 2900 0 
L 2900 538 
Q 2691 219 2414 64 
Q 2138 -91 1772 -91 
Q 1169 -91 856 284 
Q 544 659 544 1381 
z
M 1991 3584 
L 1991 3584 
z
" transform="scale(0.015625)"/>
      <path id="DejaVuSans-6e" d="M 3513 2113 
L 3513 0 
L 2938 0 
L 2938 2094 
Q 2938 2591 2744 2837 
Q 2550 3084 2163 3084 
Q 1697 3084 1428 2787 
Q 1159 2491 1159 1978 
L 1159 0 
L 581 0 
L 581 3500 
L 1159 3500 
L 1159 2956 
Q 1366 3272 1645 3428 
Q 1925 3584 2291 3584 
Q 2894 3584 3203 3211 
Q 3513 2838 3513 2113 
z
" transform="scale(0.015625)"/>
      <path id="DejaVuSans-67" d="M 2906 1791 
Q 2906 2416 2648 2759 
Q 2391 3103 1925 3103 
Q 1463 3103 1205 2759 
Q 947 2416 947 1791 
Q 947 1169 1205 825 
Q 1463 481 1925 481 
Q 2391 481 2648 825 
Q 2906 1169 2906 1791 
z
M 3481 434 
Q 3481 -459 3084 -895 
Q 2688 -1331 1869 -1331 
Q 1566 -1331 1297 -1286 
Q 1028 -1241 775 -1147 
L 775 -588 
Q 1028 -725 1275 -790 
Q 1522 -856 1778 -856 
Q 2344 -856 2625 -561 
Q 2906 -266 2906 331 
L 2906 616 
Q 2728 306 2450 153 
Q 2172 0 1784 0 
Q 1141 0 747 490 
Q 353 981 353 1791 
Q 353 2603 747 3093 
Q 1141 3584 1784 3584 
Q 2172 3584 2450 3431 
Q 2728 3278 2906 2969 
L 2906 3500 
L 3481 3500 
L 3481 434 
z
" transform="scale(0.015625)"/>
      <path id="DejaVuSans-27" d="M 1147 4666 
L 1147 2931 
L 616 2931 
L 616 4666 
L 1147 4666 
z
" transform="scale(0.015625)"/>
      <path id="DejaVuSans-73" d="M 2834 3397 
L 2834 2853 
Q 2591 2978 2328 3040 
Q 2066 3103 1784 3103 
Q 1356 3103 1142 2972 
Q 928 2841 928 2578 
Q 928 2378 1081 2264 
Q 1234 2150 1697 2047 
L 1894 2003 
Q 2506 1872 2764 1633 
Q 3022 1394 3022 966 
Q 3022 478 2636 193 
Q 2250 -91 1575 -91 
Q 1294 -91 989 -36 
Q 684 19 347 128 
L 347 722 
Q 666 556 975 473 
Q 1284 391 1588 391 
Q 1994 391 2212 530 
Q 2431 669 2431 922 
Q 2431 1156 2273 1281 
Q 2116 1406 1581 1522 
L 1381 1569 
Q 847 1681 609 1914 
Q 372 2147 372 2553 
Q 372 3047 722 3315 
Q 1072 3584 1716 3584 
Q 2034 3584 2315 3537 
Q 2597 3491 2834 3397 
z
" transform="scale(0.015625)"/>
      <path id="DejaVuSans-20" transform="scale(0.015625)"/>
      <path id="DejaVuSans-6d" d="M 3328 2828 
Q 3544 3216 3844 3400 
Q 4144 3584 4550 3584 
Q 5097 3584 5394 3201 
Q 5691 2819 5691 2113 
L 5691 0 
L 5113 0 
L 5113 2094 
Q 5113 2597 4934 2840 
Q 4756 3084 4391 3084 
Q 3944 3084 3684 2787 
Q 3425 2491 3425 1978 
L 3425 0 
L 2847 0 
L 2847 2094 
Q 2847 2600 2669 2842 
Q 2491 3084 2119 3084 
Q 1678 3084 1418 2786 
Q 1159 2488 1159 1978 
L 1159 0 
L 581 0 
L 581 3500 
L 1159 3500 
L 1159 2956 
Q 1356 3278 1631 3431 
Q 1906 3584 2284 3584 
Q 2666 3584 2933 3390 
Q 3200 3197 3328 2828 
z
" transform="scale(0.015625)"/>
      <path id="DejaVuSans-64" d="M 2906 2969 
L 2906 4863 
L 3481 4863 
L 3481 0 
L 2906 0 
L 2906 525 
Q 2725 213 2448 61 
Q 2172 -91 1784 -91 
Q 1150 -91 751 415 
Q 353 922 353 1747 
Q 353 2572 751 3078 
Q 1150 3584 1784 3584 
Q 2172 3584 2448 3432 
Q 2725 3281 2906 2969 
z
M 947 1747 
Q 947 1113 1208 752 
Q 1469 391 1925 391 
Q 2381 391 2643 752 
Q 2906 1113 2906 1747 
Q 2906 2381 2643 2742 
Q 2381 3103 1925 3103 
Q 1469 3103 1208 2742 
Q 947 2381 947 1747 
z
" transform="scale(0.015625)"/>
      <path id="DejaVuSans-6c" d="M 603 4863 
L 1178 4863 
L 1178 0 
L 603 0 
L 603 4863 
z
" transform="scale(0.015625)"/>
      <path id="DejaVuSans-76" d="M 191 3500 
L 800 3500 
L 1894 563 
L 2988 3500 
L 3597 3500 
L 2284 0 
L 1503 0 
L 191 3500 
z
" transform="scale(0.015625)"/>
      <path id="DejaVuSans-72" d="M 2631 2963 
Q 2534 3019 2420 3045 
Q 2306 3072 2169 3072 
Q 1681 3072 1420 2755 
Q 1159 2438 1159 1844 
L 1159 0 
L 581 0 
L 581 3500 
L 1159 3500 
L 1159 2956 
Q 1341 3275 1631 3429 
Q 1922 3584 2338 3584 
Q 2397 3584 2469 3576 
Q 2541 3569 2628 3553 
L 2631 2963 
z
" transform="scale(0.015625)"/>
      <path id="DejaVuSans-61" d="M 2194 1759 
Q 1497 1759 1228 1600 
Q 959 1441 959 1056 
Q 959 750 1161 570 
Q 1363 391 1709 391 
Q 2188 391 2477 730 
Q 2766 1069 2766 1631 
L 2766 1759 
L 2194 1759 
z
M 3341 1997 
L 3341 0 
L 2766 0 
L 2766 531 
Q 2569 213 2275 61 
Q 1981 -91 1556 -91 
Q 1019 -91 701 211 
Q 384 513 384 1019 
Q 384 1609 779 1909 
Q 1175 2209 1959 2209 
L 2766 2209 
L 2766 2266 
Q 2766 2663 2505 2880 
Q 2244 3097 1772 3097 
Q 1472 3097 1187 3025 
Q 903 2953 641 2809 
L 641 3341 
Q 956 3463 1253 3523 
Q 1550 3584 1831 3584 
Q 2591 3584 2966 3190 
Q 3341 2797 3341 1997 
z
" transform="scale(0.015625)"/>
     </defs>
     <use xlink:href="#DejaVuSans-59"/>
     <use xlink:href="#DejaVuSans-6f" x="47.833984"/>
     <use xlink:href="#DejaVuSans-75" x="109.015625"/>
     <use xlink:href="#DejaVuSans-6e" x="172.394531"/>
     <use xlink:href="#DejaVuSans-67" x="235.773438"/>
     <use xlink:href="#DejaVuSans-27" x="299.25"/>
     <use xlink:href="#DejaVuSans-73" x="326.740234"/>
     <use xlink:href="#DejaVuSans-20" x="378.839844"/>
     <use xlink:href="#DejaVuSans-6d" x="410.626953"/>
     <use xlink:href="#DejaVuSans-6f" x="508.039062"/>
     <use xlink:href="#DejaVuSans-64" x="569.220703"/>
     <use xlink:href="#DejaVuSans-75" x="632.697266"/>
     <use xlink:href="#DejaVuSans-6c" x="696.076172"/>
     <use xlink:href="#DejaVuSans-75" x="723.859375"/>
     <use xlink:href="#DejaVuSans-73" x="787.238281"/>
     <use xlink:href="#DejaVuSans-20" x="839.337891"/>
     <use xlink:href="#DejaVuSans-6f" x="871.125"/>
     <use xlink:href="#DejaVuSans-76" x="932.306641"/>
     <use xlink:href="#DejaVuSans-65" x="991.486328"/>
     <use xlink:href="#DejaVuSans-72" x="1053.009766"/>
     <use xlink:href="#DejaVuSans-20" x="1094.123047"/>
     <use xlink:href="#DejaVuSans-61" x="1125.910156"/>
     <use xlink:href="#DejaVuSans-6e" x="1187.189453"/>
     <use xlink:href="#DejaVuSans-67" x="1250.568359"/>
     <use xlink:href="#DejaVuSans-6c" x="1314.044922"/>
     <use xlink:href="#DejaVuSans-65" x="1341.828125"/>
    </g>
   </g>
   <g id="legend_1">
    <g id="patch_4">
     <path d="M 1220.882138 151.49065 
L 1303.8212 151.49065 
Q 1305.8212 151.49065 1305.8212 149.49065 
L 1305.8212 121.1344 
Q 1305.8212 119.1344 1303.8212 119.1344 
L 1220.882138 119.1344 
Q 1218.882138 119.1344 1218.882138 121.1344 
L 1218.882138 149.49065 
Q 1218.882138 151.49065 1220.882138 151.49065 
z
" style="fill: #ffffff; opacity: 0.8; stroke: #cccccc; stroke-linejoin: miter"/>
    </g>
    <g id="line2d_15">
     <path d="M 1222.882138 127.232838 
L 1232.882138 127.232838 
L 1242.882138 127.232838 
" style="fill: none; stroke: #1f77b4; stroke-width: 1.5; stroke-linecap: square"/>
    </g>
    <g id="text_15">
     <!-- MT Hybrid -->
     <g transform="translate(1250.882138 130.732838)scale(0.1 -0.1)">
      <defs>
       <path id="DejaVuSans-4d" d="M 628 4666 
L 1569 4666 
L 2759 1491 
L 3956 4666 
L 4897 4666 
L 4897 0 
L 4281 0 
L 4281 4097 
L 3078 897 
L 2444 897 
L 1241 4097 
L 1241 0 
L 628 0 
L 628 4666 
z
" transform="scale(0.015625)"/>
       <path id="DejaVuSans-54" d="M -19 4666 
L 3928 4666 
L 3928 4134 
L 2272 4134 
L 2272 0 
L 1638 0 
L 1638 4134 
L -19 4134 
L -19 4666 
z
" transform="scale(0.015625)"/>
       <path id="DejaVuSans-48" d="M 628 4666 
L 1259 4666 
L 1259 2753 
L 3553 2753 
L 3553 4666 
L 4184 4666 
L 4184 0 
L 3553 0 
L 3553 2222 
L 1259 2222 
L 1259 0 
L 628 0 
L 628 4666 
z
" transform="scale(0.015625)"/>
       <path id="DejaVuSans-79" d="M 2059 -325 
Q 1816 -950 1584 -1140 
Q 1353 -1331 966 -1331 
L 506 -1331 
L 506 -850 
L 844 -850 
Q 1081 -850 1212 -737 
Q 1344 -625 1503 -206 
L 1606 56 
L 191 3500 
L 800 3500 
L 1894 763 
L 2988 3500 
L 3597 3500 
L 2059 -325 
z
" transform="scale(0.015625)"/>
       <path id="DejaVuSans-62" d="M 3116 1747 
Q 3116 2381 2855 2742 
Q 2594 3103 2138 3103 
Q 1681 3103 1420 2742 
Q 1159 2381 1159 1747 
Q 1159 1113 1420 752 
Q 1681 391 2138 391 
Q 2594 391 2855 752 
Q 3116 1113 3116 1747 
z
M 1159 2969 
Q 1341 3281 1617 3432 
Q 1894 3584 2278 3584 
Q 2916 3584 3314 3078 
Q 3713 2572 3713 1747 
Q 3713 922 3314 415 
Q 2916 -91 2278 -91 
Q 1894 -91 1617 61 
Q 1341 213 1159 525 
L 1159 0 
L 581 0 
L 581 4863 
L 1159 4863 
L 1159 2969 
z
" transform="scale(0.015625)"/>
       <path id="DejaVuSans-69" d="M 603 3500 
L 1178 3500 
L 1178 0 
L 603 0 
L 603 3500 
z
M 603 4863 
L 1178 4863 
L 1178 4134 
L 603 4134 
L 603 4863 
z
" transform="scale(0.015625)"/>
      </defs>
      <use xlink:href="#DejaVuSans-4d"/>
      <use xlink:href="#DejaVuSans-54" x="86.279297"/>
      <use xlink:href="#DejaVuSans-20" x="147.363281"/>
      <use xlink:href="#DejaVuSans-48" x="179.150391"/>
      <use xlink:href="#DejaVuSans-79" x="254.345703"/>
      <use xlink:href="#DejaVuSans-62" x="313.525391"/>
      <use xlink:href="#DejaVuSans-72" x="377.001953"/>
      <use xlink:href="#DejaVuSans-69" x="418.115234"/>
      <use xlink:href="#DejaVuSans-64" x="445.898438"/>
     </g>
    </g>
    <g id="line2d_16">
     <path d="M 1222.882138 141.910963 
L 1232.882138 141.910963 
L 1242.882138 141.910963 
" style="fill: none; stroke: #ff7f0e; stroke-width: 1.5; stroke-linecap: square"/>
    </g>
    <g id="text_16">
     <!-- HT Hybrid -->
     <g transform="translate(1250.882138 145.410963)scale(0.1 -0.1)">
      <use xlink:href="#DejaVuSans-48"/>
      <use xlink:href="#DejaVuSans-54" x="75.195312"/>
      <use xlink:href="#DejaVuSans-20" x="136.279297"/>
      <use xlink:href="#DejaVuSans-48" x="168.066406"/>
      <use xlink:href="#DejaVuSans-79" x="243.261719"/>
      <use xlink:href="#DejaVuSans-62" x="302.441406"/>
      <use xlink:href="#DejaVuSans-72" x="365.917969"/>
      <use xlink:href="#DejaVuSans-69" x="407.03125"/>
      <use xlink:href="#DejaVuSans-64" x="434.814453"/>
     </g>
    </g>
   </g>
  </g>
 </g>
 <defs>
  <clipPath id="pe24d317427">
   <path d="M 1310.8212 480.3156 
C 1310.8212 432.229125 1301.349213 384.610231 1282.947316 340.184122 
C 1264.545419 295.758012 1237.571482 255.388663 1203.56921 221.38639 
C 1169.566937 187.384118 1129.197588 160.410181 1084.771478 142.008284 
C 1040.345369 123.606387 992.726475 114.1344 944.64 114.1344 
C 896.553525 114.1344 848.934631 123.606387 804.508522 142.008284 
C 760.082412 160.410181 719.713063 187.384118 685.71079 221.38639 
C 651.708518 255.388663 624.734581 295.758012 606.332684 340.184122 
C 587.930787 384.610231 578.4588 432.229125 578.4588 480.3156 
C 578.4588 528.402075 587.930787 576.020969 606.332684 620.447078 
C 624.734581 664.873188 651.708518 705.242537 685.71079 739.24481 
C 719.713063 773.247082 760.082412 800.221019 804.508522 818.622916 
C 848.934631 837.024813 896.553525 846.4968 944.64 846.4968 
C 992.726475 846.4968 1040.345369 837.024813 1084.771478 818.622916 
C 1129.197588 800.221019 1169.566937 773.247082 1203.56921 739.24481 
C 1237.571482 705.242537 1264.545419 664.873188 1282.947316 620.447078 
C 1301.349213 576.020969 1310.8212 528.402075 1310.8212 480.3156 
M 944.64 480.3156 
C 944.64 480.3156 944.64 480.3156 944.64 480.3156 
C 944.64 480.3156 944.64 480.3156 944.64 480.3156 
C 944.64 480.3156 944.64 480.3156 944.64 480.3156 
C 944.64 480.3156 944.64 480.3156 944.64 480.3156 
C 944.64 480.3156 944.64 480.3156 944.64 480.3156 
C 944.64 480.3156 944.64 480.3156 944.64 480.3156 
C 944.64 480.3156 944.64 480.3156 944.64 480.3156 
C 944.64 480.3156 944.64 480.3156 944.64 480.3156 
C 944.64 480.3156 944.64 480.3156 944.64 480.3156 
C 944.64 480.3156 944.64 480.3156 944.64 480.3156 
C 944.64 480.3156 944.64 480.3156 944.64 480.3156 
C 944.64 480.3156 944.64 480.3156 944.64 480.3156 
C 944.64 480.3156 944.64 480.3156 944.64 480.3156 
C 944.64 480.3156 944.64 480.3156 944.64 480.3156 
C 944.64 480.3156 944.64 480.3156 944.64 480.3156 
C 944.64 480.3156 944.64 480.3156 944.64 480.3156 
M 1310.8212 480.3156 
z
"/>
  </clipPath>
 </defs>
</svg>
