<?xml version="1.0" encoding="utf-8" standalone="no"?>
<!DOCTYPE svg PUBLIC "-//W3C//DTD SVG 1.1//EN"
  "http://www.w3.org/Graphics/SVG/1.1/DTD/svg11.dtd">
<svg xmlns:xlink="http://www.w3.org/1999/xlink" width="460.8pt" height="345.6pt" viewBox="0 0 460.8 345.6" xmlns="http://www.w3.org/2000/svg" version="1.1">
 <metadata>
  <rdf:RDF xmlns:dc="http://purl.org/dc/elements/1.1/" xmlns:cc="http://creativecommons.org/ns#" xmlns:rdf="http://www.w3.org/1999/02/22-rdf-syntax-ns#">
   <cc:Work>
    <dc:type rdf:resource="http://purl.org/dc/dcmitype/StillImage"/>
    <dc:date>2023-02-20T15:42:51.472077</dc:date>
    <dc:format>image/svg+xml</dc:format>
    <dc:creator>
     <cc:Agent>
      <dc:title>Matplotlib v3.5.2, https://matplotlib.org/</dc:title>
     </cc:Agent>
    </dc:creator>
   </cc:Work>
  </rdf:RDF>
 </metadata>
 <defs>
  <style type="text/css">*{stroke-linejoin: round; stroke-linecap: butt}</style>
 </defs>
 <g id="figure_1">
  <g id="patch_1">
   <path d="M 0 345.6 
L 460.8 345.6 
L 460.8 0 
L 0 0 
z
" style="fill: #ffffff"/>
  </g>
  <g id="axes_1">
   <g id="patch_2">
    <path d="M 369.216 174.528 
C 369.216 157.055246 365.774248 139.752393 359.087715 123.609673 
C 352.401182 107.466954 342.599903 92.798303 330.2448 80.4432 
C 317.889697 68.088097 303.221046 58.286818 287.078327 51.600285 
C 270.935607 44.913752 253.632754 41.472 236.16 41.472 
C 218.687246 41.472 201.384393 44.913752 185.241673 51.600285 
C 169.098954 58.286818 154.430303 68.088097 142.0752 80.4432 
C 129.720097 92.798303 119.918818 107.466954 113.232285 123.609673 
C 106.545752 139.752393 103.104 157.055246 103.104 174.528 
C 103.104 192.000754 106.545752 209.303607 113.232285 225.446327 
C 119.918818 241.589046 129.720097 256.257697 142.0752 268.6128 
C 154.430303 280.967903 169.098954 290.769182 185.241673 297.455715 
C 201.384393 304.142248 218.687246 307.584 236.16 307.584 
C 253.632754 307.584 270.935607 304.142248 287.078327 297.455715 
C 303.221046 290.769182 317.889697 280.967903 330.2448 268.6128 
C 342.599903 256.257697 352.401182 241.589046 359.087715 225.446327 
C 365.774248 209.303607 369.216 192.000754 369.216 174.528 
M 236.16 174.528 
C 236.16 174.528 236.16 174.528 236.16 174.528 
C 236.16 174.528 236.16 174.528 236.16 174.528 
C 236.16 174.528 236.16 174.528 236.16 174.528 
C 236.16 174.528 236.16 174.528 236.16 174.528 
C 236.16 174.528 236.16 174.528 236.16 174.528 
C 236.16 174.528 236.16 174.528 236.16 174.528 
C 236.16 174.528 236.16 174.528 236.16 174.528 
C 236.16 174.528 236.16 174.528 236.16 174.528 
C 236.16 174.528 236.16 174.528 236.16 174.528 
C 236.16 174.528 236.16 174.528 236.16 174.528 
C 236.16 174.528 236.16 174.528 236.16 174.528 
C 236.16 174.528 236.16 174.528 236.16 174.528 
C 236.16 174.528 236.16 174.528 236.16 174.528 
C 236.16 174.528 236.16 174.528 236.16 174.528 
C 236.16 174.528 236.16 174.528 236.16 174.528 
C 236.16 174.528 236.16 174.528 236.16 174.528 
M 369.216 174.528 
z
" style="fill: #ffffff"/>
   </g>
   <g id="matplotlib.axis_1">
    <g id="xtick_1">
     <g id="line2d_1">
      <path d="M 236.16 174.528 
L 369.216 174.528 
" clip-path="url(#p42e21ac9d9)" style="fill: none; stroke: #b0b0b0; stroke-width: 0.8; stroke-linecap: square"/>
     </g>
     <g id="text_1">
      <!-- 0° -->
      <g transform="translate(377.53475 177.287375)scale(0.1 -0.1)">
       <defs>
        <path id="DejaVuSans-30" d="M 2034 4250 
Q 1547 4250 1301 3770 
Q 1056 3291 1056 2328 
Q 1056 1369 1301 889 
Q 1547 409 2034 409 
Q 2525 409 2770 889 
Q 3016 1369 3016 2328 
Q 3016 3291 2770 3770 
Q 2525 4250 2034 4250 
z
M 2034 4750 
Q 2819 4750 3233 4129 
Q 3647 3509 3647 2328 
Q 3647 1150 3233 529 
Q 2819 -91 2034 -91 
Q 1250 -91 836 529 
Q 422 1150 422 2328 
Q 422 3509 836 4129 
Q 1250 4750 2034 4750 
z
" transform="scale(0.015625)"/>
        <path id="DejaVuSans-b0" d="M 1600 4347 
Q 1350 4347 1178 4173 
Q 1006 4000 1006 3750 
Q 1006 3503 1178 3333 
Q 1350 3163 1600 3163 
Q 1850 3163 2022 3333 
Q 2194 3503 2194 3750 
Q 2194 3997 2020 4172 
Q 1847 4347 1600 4347 
z
M 1600 4750 
Q 1800 4750 1984 4673 
Q 2169 4597 2303 4453 
Q 2447 4313 2519 4134 
Q 2591 3956 2591 3750 
Q 2591 3338 2302 3052 
Q 2013 2766 1594 2766 
Q 1172 2766 890 3047 
Q 609 3328 609 3750 
Q 609 4169 896 4459 
Q 1184 4750 1600 4750 
z
" transform="scale(0.015625)"/>
       </defs>
       <use xlink:href="#DejaVuSans-30"/>
       <use xlink:href="#DejaVuSans-b0" x="63.623047"/>
      </g>
     </g>
    </g>
    <g id="xtick_2">
     <g id="line2d_2">
      <path d="M 236.16 174.528 
L 330.2448 80.4432 
" clip-path="url(#p42e21ac9d9)" style="fill: none; stroke: #b0b0b0; stroke-width: 0.8; stroke-linecap: square"/>
     </g>
     <g id="text_2">
      <!-- 45° -->
      <g transform="translate(331.281795 73.30308)scale(0.1 -0.1)">
       <defs>
        <path id="DejaVuSans-34" d="M 2419 4116 
L 825 1625 
L 2419 1625 
L 2419 4116 
z
M 2253 4666 
L 3047 4666 
L 3047 1625 
L 3713 1625 
L 3713 1100 
L 3047 1100 
L 3047 0 
L 2419 0 
L 2419 1100 
L 313 1100 
L 313 1709 
L 2253 4666 
z
" transform="scale(0.015625)"/>
        <path id="DejaVuSans-35" d="M 691 4666 
L 3169 4666 
L 3169 4134 
L 1269 4134 
L 1269 2991 
Q 1406 3038 1543 3061 
Q 1681 3084 1819 3084 
Q 2600 3084 3056 2656 
Q 3513 2228 3513 1497 
Q 3513 744 3044 326 
Q 2575 -91 1722 -91 
Q 1428 -91 1123 -41 
Q 819 9 494 109 
L 494 744 
Q 775 591 1075 516 
Q 1375 441 1709 441 
Q 2250 441 2565 725 
Q 2881 1009 2881 1497 
Q 2881 1984 2565 2268 
Q 2250 2553 1709 2553 
Q 1456 2553 1204 2497 
Q 953 2441 691 2322 
L 691 4666 
z
" transform="scale(0.015625)"/>
       </defs>
       <use xlink:href="#DejaVuSans-34"/>
       <use xlink:href="#DejaVuSans-35" x="63.623047"/>
       <use xlink:href="#DejaVuSans-b0" x="127.246094"/>
      </g>
     </g>
    </g>
    <g id="xtick_3">
     <g id="line2d_3">
      <path d="M 236.16 174.528 
L 236.16 41.472 
" clip-path="url(#p42e21ac9d9)" style="fill: none; stroke: #b0b0b0; stroke-width: 0.8; stroke-linecap: square"/>
     </g>
     <g id="text_3">
      <!-- 90° -->
      <g transform="translate(227.2975 30.231375)scale(0.1 -0.1)">
       <defs>
        <path id="DejaVuSans-39" d="M 703 97 
L 703 672 
Q 941 559 1184 500 
Q 1428 441 1663 441 
Q 2288 441 2617 861 
Q 2947 1281 2994 2138 
Q 2813 1869 2534 1725 
Q 2256 1581 1919 1581 
Q 1219 1581 811 2004 
Q 403 2428 403 3163 
Q 403 3881 828 4315 
Q 1253 4750 1959 4750 
Q 2769 4750 3195 4129 
Q 3622 3509 3622 2328 
Q 3622 1225 3098 567 
Q 2575 -91 1691 -91 
Q 1453 -91 1209 -44 
Q 966 3 703 97 
z
M 1959 2075 
Q 2384 2075 2632 2365 
Q 2881 2656 2881 3163 
Q 2881 3666 2632 3958 
Q 2384 4250 1959 4250 
Q 1534 4250 1286 3958 
Q 1038 3666 1038 3163 
Q 1038 2656 1286 2365 
Q 1534 2075 1959 2075 
z
" transform="scale(0.015625)"/>
       </defs>
       <use xlink:href="#DejaVuSans-39"/>
       <use xlink:href="#DejaVuSans-30" x="63.623047"/>
       <use xlink:href="#DejaVuSans-b0" x="127.246094"/>
      </g>
     </g>
    </g>
    <g id="xtick_4">
     <g id="line2d_4">
      <path d="M 236.16 174.528 
L 142.0752 80.4432 
" clip-path="url(#p42e21ac9d9)" style="fill: none; stroke: #b0b0b0; stroke-width: 0.8; stroke-linecap: square"/>
     </g>
     <g id="text_4">
      <!-- 135° -->
      <g transform="translate(120.131955 73.30308)scale(0.1 -0.1)">
       <defs>
        <path id="DejaVuSans-31" d="M 794 531 
L 1825 531 
L 1825 4091 
L 703 3866 
L 703 4441 
L 1819 4666 
L 2450 4666 
L 2450 531 
L 3481 531 
L 3481 0 
L 794 0 
L 794 531 
z
" transform="scale(0.015625)"/>
        <path id="DejaVuSans-33" d="M 2597 2516 
Q 3050 2419 3304 2112 
Q 3559 1806 3559 1356 
Q 3559 666 3084 287 
Q 2609 -91 1734 -91 
Q 1441 -91 1130 -33 
Q 819 25 488 141 
L 488 750 
Q 750 597 1062 519 
Q 1375 441 1716 441 
Q 2309 441 2620 675 
Q 2931 909 2931 1356 
Q 2931 1769 2642 2001 
Q 2353 2234 1838 2234 
L 1294 2234 
L 1294 2753 
L 1863 2753 
Q 2328 2753 2575 2939 
Q 2822 3125 2822 3475 
Q 2822 3834 2567 4026 
Q 2313 4219 1838 4219 
Q 1578 4219 1281 4162 
Q 984 4106 628 3988 
L 628 4550 
Q 988 4650 1302 4700 
Q 1616 4750 1894 4750 
Q 2613 4750 3031 4423 
Q 3450 4097 3450 3541 
Q 3450 3153 3228 2886 
Q 3006 2619 2597 2516 
z
" transform="scale(0.015625)"/>
       </defs>
       <use xlink:href="#DejaVuSans-31"/>
       <use xlink:href="#DejaVuSans-33" x="63.623047"/>
       <use xlink:href="#DejaVuSans-35" x="127.246094"/>
       <use xlink:href="#DejaVuSans-b0" x="190.869141"/>
      </g>
     </g>
    </g>
    <g id="xtick_5">
     <g id="line2d_5">
      <path d="M 236.16 174.528 
L 103.104 174.528 
" clip-path="url(#p42e21ac9d9)" style="fill: none; stroke: #b0b0b0; stroke-width: 0.8; stroke-linecap: square"/>
     </g>
     <g id="text_5">
      <!-- 180° -->
      <g transform="translate(77.06025 177.287375)scale(0.1 -0.1)">
       <defs>
        <path id="DejaVuSans-38" d="M 2034 2216 
Q 1584 2216 1326 1975 
Q 1069 1734 1069 1313 
Q 1069 891 1326 650 
Q 1584 409 2034 409 
Q 2484 409 2743 651 
Q 3003 894 3003 1313 
Q 3003 1734 2745 1975 
Q 2488 2216 2034 2216 
z
M 1403 2484 
Q 997 2584 770 2862 
Q 544 3141 544 3541 
Q 544 4100 942 4425 
Q 1341 4750 2034 4750 
Q 2731 4750 3128 4425 
Q 3525 4100 3525 3541 
Q 3525 3141 3298 2862 
Q 3072 2584 2669 2484 
Q 3125 2378 3379 2068 
Q 3634 1759 3634 1313 
Q 3634 634 3220 271 
Q 2806 -91 2034 -91 
Q 1263 -91 848 271 
Q 434 634 434 1313 
Q 434 1759 690 2068 
Q 947 2378 1403 2484 
z
M 1172 3481 
Q 1172 3119 1398 2916 
Q 1625 2713 2034 2713 
Q 2441 2713 2670 2916 
Q 2900 3119 2900 3481 
Q 2900 3844 2670 4047 
Q 2441 4250 2034 4250 
Q 1625 4250 1398 4047 
Q 1172 3844 1172 3481 
z
" transform="scale(0.015625)"/>
       </defs>
       <use xlink:href="#DejaVuSans-31"/>
       <use xlink:href="#DejaVuSans-38" x="63.623047"/>
       <use xlink:href="#DejaVuSans-30" x="127.246094"/>
       <use xlink:href="#DejaVuSans-b0" x="190.869141"/>
      </g>
     </g>
    </g>
    <g id="xtick_6">
     <g id="line2d_6">
      <path d="M 236.16 174.528 
L 142.0752 268.6128 
" clip-path="url(#p42e21ac9d9)" style="fill: none; stroke: #b0b0b0; stroke-width: 0.8; stroke-linecap: square"/>
     </g>
     <g id="text_6">
      <!-- 225° -->
      <g transform="translate(120.131955 281.27167)scale(0.1 -0.1)">
       <defs>
        <path id="DejaVuSans-32" d="M 1228 531 
L 3431 531 
L 3431 0 
L 469 0 
L 469 531 
Q 828 903 1448 1529 
Q 2069 2156 2228 2338 
Q 2531 2678 2651 2914 
Q 2772 3150 2772 3378 
Q 2772 3750 2511 3984 
Q 2250 4219 1831 4219 
Q 1534 4219 1204 4116 
Q 875 4013 500 3803 
L 500 4441 
Q 881 4594 1212 4672 
Q 1544 4750 1819 4750 
Q 2544 4750 2975 4387 
Q 3406 4025 3406 3419 
Q 3406 3131 3298 2873 
Q 3191 2616 2906 2266 
Q 2828 2175 2409 1742 
Q 1991 1309 1228 531 
z
" transform="scale(0.015625)"/>
       </defs>
       <use xlink:href="#DejaVuSans-32"/>
       <use xlink:href="#DejaVuSans-32" x="63.623047"/>
       <use xlink:href="#DejaVuSans-35" x="127.246094"/>
       <use xlink:href="#DejaVuSans-b0" x="190.869141"/>
      </g>
     </g>
    </g>
    <g id="xtick_7">
     <g id="line2d_7">
      <path d="M 236.16 174.528 
L 236.16 307.584 
" clip-path="url(#p42e21ac9d9)" style="fill: none; stroke: #b0b0b0; stroke-width: 0.8; stroke-linecap: square"/>
     </g>
     <g id="text_7">
      <!-- 270° -->
      <g transform="translate(224.11625 324.343375)scale(0.1 -0.1)">
       <defs>
        <path id="DejaVuSans-37" d="M 525 4666 
L 3525 4666 
L 3525 4397 
L 1831 0 
L 1172 0 
L 2766 4134 
L 525 4134 
L 525 4666 
z
" transform="scale(0.015625)"/>
       </defs>
       <use xlink:href="#DejaVuSans-32"/>
       <use xlink:href="#DejaVuSans-37" x="63.623047"/>
       <use xlink:href="#DejaVuSans-30" x="127.246094"/>
       <use xlink:href="#DejaVuSans-b0" x="190.869141"/>
      </g>
     </g>
    </g>
    <g id="xtick_8">
     <g id="line2d_8">
      <path d="M 236.16 174.528 
L 330.2448 268.6128 
" clip-path="url(#p42e21ac9d9)" style="fill: none; stroke: #b0b0b0; stroke-width: 0.8; stroke-linecap: square"/>
     </g>
     <g id="text_8">
      <!-- 315° -->
      <g transform="translate(328.100545 281.27167)scale(0.1 -0.1)">
       <use xlink:href="#DejaVuSans-33"/>
       <use xlink:href="#DejaVuSans-31" x="63.623047"/>
       <use xlink:href="#DejaVuSans-35" x="127.246094"/>
       <use xlink:href="#DejaVuSans-b0" x="190.869141"/>
      </g>
     </g>
    </g>
   </g>
   <g id="matplotlib.axis_2">
    <g id="ytick_1">
     <g id="line2d_9">
      <path d="M 264.585968 174.528 
C 264.585968 170.795136 263.850675 167.09857 262.42217 163.649853 
C 260.993665 160.201137 258.899728 157.067339 256.260194 154.427806 
C 253.620661 151.788272 250.486863 149.694335 247.038147 148.26583 
C 243.58943 146.837325 239.892864 146.102032 236.16 146.102032 
C 232.427136 146.102032 228.73057 146.837325 225.281853 148.26583 
C 221.833137 149.694335 218.699339 151.788272 216.059806 154.427806 
C 213.420272 157.067339 211.326335 160.201137 209.89783 163.649853 
C 208.469325 167.09857 207.734032 170.795136 207.734032 174.528 
C 207.734032 178.260864 208.469325 181.95743 209.89783 185.406147 
C 211.326335 188.854863 213.420272 191.988661 216.059806 194.628194 
C 218.699339 197.267728 221.833137 199.361665 225.281853 200.79017 
C 228.73057 202.218675 232.427136 202.953968 236.16 202.953968 
C 239.892864 202.953968 243.58943 202.218675 247.038147 200.79017 
C 250.486863 199.361665 253.620661 197.267728 256.260194 194.628194 
C 258.899728 191.988661 260.993665 188.854863 262.42217 185.406147 
C 263.850675 181.95743 264.585968 178.260864 264.585968 174.528 
" clip-path="url(#p42e21ac9d9)" style="fill: none; stroke: #b0b0b0; stroke-width: 0.8; stroke-linecap: square"/>
     </g>
     <g id="text_9">
      <!-- 0.5 -->
      <g transform="translate(262.42217 161.570166)scale(0.1 -0.1)">
       <defs>
        <path id="DejaVuSans-2e" d="M 684 794 
L 1344 794 
L 1344 0 
L 684 0 
L 684 794 
z
" transform="scale(0.015625)"/>
       </defs>
       <use xlink:href="#DejaVuSans-30"/>
       <use xlink:href="#DejaVuSans-2e" x="63.623047"/>
       <use xlink:href="#DejaVuSans-35" x="95.410156"/>
      </g>
     </g>
    </g>
    <g id="ytick_2">
     <g id="line2d_10">
      <path d="M 293.011935 174.528 
C 293.011935 167.062272 291.54135 159.669139 288.684339 152.771706 
C 285.827329 145.874273 281.639456 139.606678 276.360389 134.327611 
C 271.081322 129.048544 264.813727 124.860671 257.916294 122.003661 
C 251.018861 119.14665 243.625728 117.676065 236.16 117.676065 
C 228.694272 117.676065 221.301139 119.14665 214.403706 122.003661 
C 207.506273 124.860671 201.238678 129.048544 195.959611 134.327611 
C 190.680544 139.606678 186.492671 145.874273 183.635661 152.771706 
C 180.77865 159.669139 179.308065 167.062272 179.308065 174.528 
C 179.308065 181.993728 180.77865 189.386861 183.635661 196.284294 
C 186.492671 203.181727 190.680544 209.449322 195.959611 214.728389 
C 201.238678 220.007456 207.506273 224.195329 214.403706 227.052339 
C 221.301139 229.90935 228.694272 231.379935 236.16 231.379935 
C 243.625728 231.379935 251.018861 229.90935 257.916294 227.052339 
C 264.813727 224.195329 271.081322 220.007456 276.360389 214.728389 
C 281.639456 209.449322 285.827329 203.181727 288.684339 196.284294 
C 291.54135 189.386861 293.011935 181.993728 293.011935 174.528 
" clip-path="url(#p42e21ac9d9)" style="fill: none; stroke: #b0b0b0; stroke-width: 0.8; stroke-linecap: square"/>
     </g>
     <g id="text_10">
      <!-- 1.0 -->
      <g transform="translate(288.684339 150.692019)scale(0.1 -0.1)">
       <use xlink:href="#DejaVuSans-31"/>
       <use xlink:href="#DejaVuSans-2e" x="63.623047"/>
       <use xlink:href="#DejaVuSans-30" x="95.410156"/>
      </g>
     </g>
    </g>
    <g id="ytick_3">
     <g id="line2d_11">
      <path d="M 321.437903 174.528 
C 321.437903 163.329408 319.232025 152.239709 314.946509 141.893559 
C 310.660994 131.54741 304.379183 122.146017 296.460583 114.227417 
C 288.541983 106.308817 279.14059 100.027006 268.794441 95.741491 
C 258.448291 91.455975 247.358592 89.250097 236.16 89.250097 
C 224.961408 89.250097 213.871709 91.455975 203.525559 95.741491 
C 193.17941 100.027006 183.778017 106.308817 175.859417 114.227417 
C 167.940817 122.146017 161.659006 131.54741 157.373491 141.893559 
C 153.087975 152.239709 150.882097 163.329408 150.882097 174.528 
C 150.882097 185.726592 153.087975 196.816291 157.373491 207.162441 
C 161.659006 217.50859 167.940817 226.909983 175.859417 234.828583 
C 183.778017 242.747183 193.17941 249.028994 203.525559 253.314509 
C 213.871709 257.600025 224.961408 259.805903 236.16 259.805903 
C 247.358592 259.805903 258.448291 257.600025 268.794441 253.314509 
C 279.14059 249.028994 288.541983 242.747183 296.460583 234.828583 
C 304.379183 226.909983 310.660994 217.50859 314.946509 207.162441 
C 319.232025 196.816291 321.437903 185.726592 321.437903 174.528 
" clip-path="url(#p42e21ac9d9)" style="fill: none; stroke: #b0b0b0; stroke-width: 0.8; stroke-linecap: square"/>
     </g>
     <g id="text_11">
      <!-- 1.5 -->
      <g transform="translate(314.946509 139.813872)scale(0.1 -0.1)">
       <use xlink:href="#DejaVuSans-31"/>
       <use xlink:href="#DejaVuSans-2e" x="63.623047"/>
       <use xlink:href="#DejaVuSans-35" x="95.410156"/>
      </g>
     </g>
    </g>
    <g id="ytick_4">
     <g id="line2d_12">
      <path d="M 349.863871 174.528 
C 349.863871 159.596545 346.922699 144.810279 341.208679 131.015413 
C 335.494658 117.220546 327.118911 104.685356 316.560778 94.127222 
C 306.002644 83.569089 293.467454 75.193342 279.672587 69.479321 
C 265.877721 63.765301 251.091455 60.824129 236.16 60.824129 
C 221.228545 60.824129 206.442279 63.765301 192.647413 69.479321 
C 178.852546 75.193342 166.317356 83.569089 155.759222 94.127222 
C 145.201089 104.685356 136.825342 117.220546 131.111321 131.015413 
C 125.397301 144.810279 122.456129 159.596545 122.456129 174.528 
C 122.456129 189.459455 125.397301 204.245721 131.111321 218.040587 
C 136.825342 231.835454 145.201089 244.370644 155.759222 254.928778 
C 166.317356 265.486911 178.852546 273.862658 192.647413 279.576679 
C 206.442279 285.290699 221.228545 288.231871 236.16 288.231871 
C 251.091455 288.231871 265.877721 285.290699 279.672587 279.576679 
C 293.467454 273.862658 306.002644 265.486911 316.560778 254.928778 
C 327.118911 244.370644 335.494658 231.835454 341.208679 218.040587 
C 346.922699 204.245721 349.863871 189.459455 349.863871 174.528 
" clip-path="url(#p42e21ac9d9)" style="fill: none; stroke: #b0b0b0; stroke-width: 0.8; stroke-linecap: square"/>
     </g>
     <g id="text_12">
      <!-- 2.0 -->
      <g transform="translate(341.208679 128.935725)scale(0.1 -0.1)">
       <use xlink:href="#DejaVuSans-32"/>
       <use xlink:href="#DejaVuSans-2e" x="63.623047"/>
       <use xlink:href="#DejaVuSans-30" x="95.410156"/>
      </g>
     </g>
    </g>
    <g id="text_13">
     <!-- 1e10 -->
     <g transform="translate(103.104 38.472)scale(0.1 -0.1)">
      <defs>
       <path id="DejaVuSans-65" d="M 3597 1894 
L 3597 1613 
L 953 1613 
Q 991 1019 1311 708 
Q 1631 397 2203 397 
Q 2534 397 2845 478 
Q 3156 559 3463 722 
L 3463 178 
Q 3153 47 2828 -22 
Q 2503 -91 2169 -91 
Q 1331 -91 842 396 
Q 353 884 353 1716 
Q 353 2575 817 3079 
Q 1281 3584 2069 3584 
Q 2775 3584 3186 3129 
Q 3597 2675 3597 1894 
z
M 3022 2063 
Q 3016 2534 2758 2815 
Q 2500 3097 2075 3097 
Q 1594 3097 1305 2825 
Q 1016 2553 972 2059 
L 3022 2063 
z
" transform="scale(0.015625)"/>
      </defs>
      <use xlink:href="#DejaVuSans-31"/>
      <use xlink:href="#DejaVuSans-65" x="63.623047"/>
      <use xlink:href="#DejaVuSans-31" x="125.146484"/>
      <use xlink:href="#DejaVuSans-30" x="188.769531"/>
     </g>
    </g>
   </g>
   <g id="line2d_13">
    <path d="M 356.565649 174.528 
L 357.896745 172.615606 
L 359.087851 170.664837 
L 360.12919 168.681761 
L 361.011494 166.67301 
L 361.726163 164.645729 
L 362.265413 162.607529 
L 362.622422 160.566419 
L 362.791482 158.530724 
L 362.768121 156.508996 
L 362.549227 154.509913 
L 362.133137 152.542168 
L 361.519716 150.614355 
L 360.710394 148.734853 
L 359.708185 146.911709 
L 358.517668 145.152523 
L 357.144938 143.464348 
L 355.597526 141.85359 
L 353.884293 140.325931 
L 352.015292 138.886258 
L 350.001612 137.538618 
L 347.85521 136.286182 
L 345.588722 135.131236 
L 343.215273 134.075183 
L 340.74829 133.118567 
L 338.201312 132.261105 
L 332.92104 130.838715 
L 327.478653 129.791453 
L 321.970424 129.093719 
L 316.481545 128.713399 
L 311.08426 128.614354 
L 305.837159 128.758661 
L 300.785436 129.108483 
L 295.961845 129.627505 
L 289.19908 130.650257 
L 283.031553 131.878169 
L 277.459319 133.228681 
L 272.458415 134.636563 
L 266.610923 136.519035 
L 260.460595 138.77076 
L 254.478595 141.2066 
L 240.513123 147.043465 
L 237.839343 147.835607 
L 235.336655 148.328748 
L 233.289501 148.527348 
L 230.775768 148.528525 
L 228.088139 148.290005 
L 224.567481 147.73927 
L 208.263582 144.821333 
L 202.82953 144.199606 
L 197.856861 143.841399 
L 192.272516 143.683359 
L 187.65825 143.747853 
L 182.666903 144.016076 
L 177.296625 144.535612 
L 171.556886 145.358576 
L 165.472043 146.540658 
L 161.244289 147.556685 
L 156.900551 148.775044 
L 152.464799 150.212296 
L 147.967106 151.883913 
L 143.444312 153.803588 
L 138.940614 155.98241 
L 134.507982 158.427902 
L 130.206308 161.142936 
L 126.103158 164.124565 
L 122.272989 167.362837 
L 118.795694 170.839678 
L 117.21529 172.659467 
L 115.754351 174.528 
L 114.423255 176.440394 
L 113.232149 178.391163 
L 112.19081 180.374239 
L 111.308506 182.38299 
L 110.593837 184.410271 
L 110.054587 186.448471 
L 109.697578 188.489581 
L 109.528518 190.525276 
L 109.551879 192.547004 
L 109.770773 194.546087 
L 110.186863 196.513832 
L 110.800284 198.441645 
L 111.609606 200.321147 
L 112.611815 202.144291 
L 113.802332 203.903477 
L 115.175062 205.591652 
L 116.722474 207.20241 
L 118.435707 208.730069 
L 120.304708 210.169742 
L 122.318388 211.517382 
L 124.46479 212.769818 
L 126.731278 213.924764 
L 129.104727 214.980817 
L 131.57171 215.937433 
L 134.118688 216.794895 
L 139.39896 218.217285 
L 144.841347 219.264547 
L 150.349576 219.962281 
L 155.838455 220.342601 
L 161.23574 220.441646 
L 166.482841 220.297339 
L 171.534564 219.947517 
L 176.358155 219.428495 
L 183.12092 218.405743 
L 189.288447 217.177831 
L 194.860681 215.827319 
L 199.861585 214.419437 
L 205.709077 212.536965 
L 211.859405 210.28524 
L 217.841405 207.8494 
L 231.806877 202.012535 
L 234.480657 201.220393 
L 236.983345 200.727252 
L 239.030499 200.528652 
L 241.544232 200.527475 
L 244.231861 200.765995 
L 247.752519 201.31673 
L 264.056418 204.234667 
L 269.49047 204.856394 
L 274.463139 205.214601 
L 280.047484 205.372641 
L 284.66175 205.308147 
L 289.653097 205.039924 
L 295.023375 204.520388 
L 300.763114 203.697424 
L 306.847957 202.515342 
L 311.075711 201.499315 
L 315.419449 200.280956 
L 319.855201 198.843704 
L 324.352894 197.172087 
L 328.875688 195.252412 
L 333.379386 193.07359 
L 337.812018 190.628098 
L 342.113692 187.913064 
L 346.216842 184.931435 
L 350.047011 181.693163 
L 353.524306 178.216322 
L 355.10471 176.396533 
L 356.565649 174.528 
L 356.565649 174.528 
" clip-path="url(#p42e21ac9d9)" style="fill: none; stroke: #1f77b4; stroke-width: 1.5; stroke-linecap: square"/>
   </g>
   <g id="line2d_14">
    <path d="M 346.392329 174.528 
L 347.632483 172.426544 
L 348.667937 170.28454 
L 349.484997 168.112783 
L 350.071772 165.922942 
L 350.41851 163.727391 
L 350.517897 161.538999 
L 350.365308 159.370901 
L 349.958989 157.236249 
L 349.300153 155.14795 
L 348.392999 153.11841 
L 347.244644 151.159289 
L 345.864965 149.281271 
L 344.266361 147.493879 
L 342.46346 145.805313 
L 340.472753 144.222344 
L 338.31221 142.750242 
L 336.000868 141.392761 
L 332.718576 139.764774 
L 329.250421 138.345818 
L 325.642872 137.1332 
L 321.940349 136.120655 
L 318.184192 135.298977 
L 313.470286 134.522604 
L 308.794521 134.000459 
L 304.209478 133.70438 
L 298.885074 133.606832 
L 293.803425 133.744381 
L 288.226419 134.141146 
L 283.054192 134.730682 
L 277.646709 135.569387 
L 272.187137 136.642853 
L 266.842226 137.91046 
L 260.898963 139.562036 
L 254.545707 141.576655 
L 240.660255 146.114505 
L 237.554081 146.816997 
L 234.785998 147.216116 
L 232.035009 147.380965 
L 228.992607 147.323621 
L 225.266227 147.013469 
L 217.871091 146.105611 
L 210.744472 145.33197 
L 205.047199 144.941071 
L 199.757622 144.796603 
L 194.257878 144.881597 
L 189.253157 145.171798 
L 183.769895 145.726296 
L 178.488168 146.499181 
L 173.559696 147.43843 
L 168.365317 148.66684 
L 163.728422 149.98308 
L 158.957444 151.571594 
L 154.91351 153.122421 
L 150.845562 154.894335 
L 146.797539 156.89858 
L 142.821768 159.142896 
L 139.733661 161.113431 
L 136.765113 163.238527 
L 133.95352 165.514188 
L 131.338396 167.933184 
L 128.960499 170.484758 
L 127.357397 172.476876 
L 125.927671 174.528 
L 124.687517 176.629456 
L 123.652063 178.77146 
L 122.835003 180.943217 
L 122.248228 183.133058 
L 121.90149 185.328609 
L 121.802103 187.517001 
L 121.954692 189.685099 
L 122.361011 191.819751 
L 123.019847 193.90805 
L 123.927001 195.93759 
L 125.075356 197.896711 
L 126.455035 199.774729 
L 128.053639 201.562121 
L 129.85654 203.250687 
L 131.847247 204.833656 
L 134.00779 206.305758 
L 136.319132 207.663239 
L 139.601424 209.291226 
L 143.069579 210.710182 
L 146.677128 211.9228 
L 150.379651 212.935345 
L 154.135808 213.757023 
L 158.849714 214.533396 
L 163.525479 215.055541 
L 168.110522 215.35162 
L 173.434926 215.449168 
L 178.516575 215.311619 
L 184.093581 214.914854 
L 189.265808 214.325318 
L 194.673291 213.486613 
L 200.132863 212.413147 
L 205.477774 211.14554 
L 211.421037 209.493964 
L 217.774293 207.479345 
L 231.659745 202.941495 
L 234.765919 202.239003 
L 237.534002 201.839884 
L 240.284991 201.675035 
L 243.327393 201.732379 
L 247.053773 202.042531 
L 254.448909 202.950389 
L 261.575528 203.72403 
L 267.272801 204.114929 
L 272.562378 204.259397 
L 278.062122 204.174403 
L 283.066843 203.884202 
L 288.550105 203.329704 
L 293.831832 202.556819 
L 298.760304 201.61757 
L 303.954683 200.38916 
L 308.591578 199.07292 
L 313.362556 197.484406 
L 317.40649 195.933579 
L 321.474438 194.161665 
L 325.522461 192.15742 
L 329.498232 189.913104 
L 332.586339 187.942569 
L 335.554887 185.817473 
L 338.36648 183.541812 
L 340.981604 181.122816 
L 343.359501 178.571242 
L 344.962603 176.579124 
L 346.392329 174.528 
L 346.392329 174.528 
" clip-path="url(#p42e21ac9d9)" style="fill: none; stroke: #ff7f0e; stroke-width: 1.5; stroke-linecap: square"/>
   </g>
   <g id="patch_3">
    <path d="M 369.216 174.528 
C 369.216 157.055246 365.774248 139.752393 359.087715 123.609673 
C 352.401182 107.466954 342.599903 92.798303 330.2448 80.4432 
C 317.889697 68.088097 303.221046 58.286818 287.078327 51.600285 
C 270.935607 44.913752 253.632754 41.472 236.16 41.472 
C 218.687246 41.472 201.384393 44.913752 185.241673 51.600285 
C 169.098954 58.286818 154.430303 68.088097 142.0752 80.4432 
C 129.720097 92.798303 119.918818 107.466954 113.232285 123.609673 
C 106.545752 139.752393 103.104 157.055246 103.104 174.528 
C 103.104 192.000754 106.545752 209.303607 113.232285 225.446327 
C 119.918818 241.589046 129.720097 256.257697 142.0752 268.6128 
C 154.430303 280.967903 169.098954 290.769182 185.241673 297.455715 
C 201.384393 304.142248 218.687246 307.584 236.16 307.584 
C 253.632754 307.584 270.935607 304.142248 287.078327 297.455715 
C 303.221046 290.769182 317.889697 280.967903 330.2448 268.6128 
C 342.599903 256.257697 352.401182 241.589046 359.087715 225.446327 
C 365.774248 209.303607 369.216 192.000754 369.216 174.528 
" style="fill: none; stroke: #000000; stroke-width: 0.8; stroke-linejoin: miter; stroke-linecap: square"/>
   </g>
   <g id="text_14">
    <!-- Young's modulus over angle -->
    <g transform="translate(151.959375 14.137313)scale(0.12 -0.12)">
     <defs>
      <path id="DejaVuSans-59" d="M -13 4666 
L 666 4666 
L 1959 2747 
L 3244 4666 
L 3922 4666 
L 2272 2222 
L 2272 0 
L 1638 0 
L 1638 2222 
L -13 4666 
z
" transform="scale(0.015625)"/>
      <path id="DejaVuSans-6f" d="M 1959 3097 
Q 1497 3097 1228 2736 
Q 959 2375 959 1747 
Q 959 1119 1226 758 
Q 1494 397 1959 397 
Q 2419 397 2687 759 
Q 2956 1122 2956 1747 
Q 2956 2369 2687 2733 
Q 2419 3097 1959 3097 
z
M 1959 3584 
Q 2709 3584 3137 3096 
Q 3566 2609 3566 1747 
Q 3566 888 3137 398 
Q 2709 -91 1959 -91 
Q 1206 -91 779 398 
Q 353 888 353 1747 
Q 353 2609 779 3096 
Q 1206 3584 1959 3584 
z
" transform="scale(0.015625)"/>
      <path id="DejaVuSans-75" d="M 544 1381 
L 544 3500 
L 1119 3500 
L 1119 1403 
Q 1119 906 1312 657 
Q 1506 409 1894 409 
Q 2359 409 2629 706 
Q 2900 1003 2900 1516 
L 2900 3500 
L 3475 3500 
L 3475 0 
L 2900 0 
L 2900 538 
Q 2691 219 2414 64 
Q 2138 -91 1772 -91 
Q 1169 -91 856 284 
Q 544 659 544 1381 
z
M 1991 3584 
L 1991 3584 
z
" transform="scale(0.015625)"/>
      <path id="DejaVuSans-6e" d="M 3513 2113 
L 3513 0 
L 2938 0 
L 2938 2094 
Q 2938 2591 2744 2837 
Q 2550 3084 2163 3084 
Q 1697 3084 1428 2787 
Q 1159 2491 1159 1978 
L 1159 0 
L 581 0 
L 581 3500 
L 1159 3500 
L 1159 2956 
Q 1366 3272 1645 3428 
Q 1925 3584 2291 3584 
Q 2894 3584 3203 3211 
Q 3513 2838 3513 2113 
z
" transform="scale(0.015625)"/>
      <path id="DejaVuSans-67" d="M 2906 1791 
Q 2906 2416 2648 2759 
Q 2391 3103 1925 3103 
Q 1463 3103 1205 2759 
Q 947 2416 947 1791 
Q 947 1169 1205 825 
Q 1463 481 1925 481 
Q 2391 481 2648 825 
Q 2906 1169 2906 1791 
z
M 3481 434 
Q 3481 -459 3084 -895 
Q 2688 -1331 1869 -1331 
Q 1566 -1331 1297 -1286 
Q 1028 -1241 775 -1147 
L 775 -588 
Q 1028 -725 1275 -790 
Q 1522 -856 1778 -856 
Q 2344 -856 2625 -561 
Q 2906 -266 2906 331 
L 2906 616 
Q 2728 306 2450 153 
Q 2172 0 1784 0 
Q 1141 0 747 490 
Q 353 981 353 1791 
Q 353 2603 747 3093 
Q 1141 3584 1784 3584 
Q 2172 3584 2450 3431 
Q 2728 3278 2906 2969 
L 2906 3500 
L 3481 3500 
L 3481 434 
z
" transform="scale(0.015625)"/>
      <path id="DejaVuSans-27" d="M 1147 4666 
L 1147 2931 
L 616 2931 
L 616 4666 
L 1147 4666 
z
" transform="scale(0.015625)"/>
      <path id="DejaVuSans-73" d="M 2834 3397 
L 2834 2853 
Q 2591 2978 2328 3040 
Q 2066 3103 1784 3103 
Q 1356 3103 1142 2972 
Q 928 2841 928 2578 
Q 928 2378 1081 2264 
Q 1234 2150 1697 2047 
L 1894 2003 
Q 2506 1872 2764 1633 
Q 3022 1394 3022 966 
Q 3022 478 2636 193 
Q 2250 -91 1575 -91 
Q 1294 -91 989 -36 
Q 684 19 347 128 
L 347 722 
Q 666 556 975 473 
Q 1284 391 1588 391 
Q 1994 391 2212 530 
Q 2431 669 2431 922 
Q 2431 1156 2273 1281 
Q 2116 1406 1581 1522 
L 1381 1569 
Q 847 1681 609 1914 
Q 372 2147 372 2553 
Q 372 3047 722 3315 
Q 1072 3584 1716 3584 
Q 2034 3584 2315 3537 
Q 2597 3491 2834 3397 
z
" transform="scale(0.015625)"/>
      <path id="DejaVuSans-20" transform="scale(0.015625)"/>
      <path id="DejaVuSans-6d" d="M 3328 2828 
Q 3544 3216 3844 3400 
Q 4144 3584 4550 3584 
Q 5097 3584 5394 3201 
Q 5691 2819 5691 2113 
L 5691 0 
L 5113 0 
L 5113 2094 
Q 5113 2597 4934 2840 
Q 4756 3084 4391 3084 
Q 3944 3084 3684 2787 
Q 3425 2491 3425 1978 
L 3425 0 
L 2847 0 
L 2847 2094 
Q 2847 2600 2669 2842 
Q 2491 3084 2119 3084 
Q 1678 3084 1418 2786 
Q 1159 2488 1159 1978 
L 1159 0 
L 581 0 
L 581 3500 
L 1159 3500 
L 1159 2956 
Q 1356 3278 1631 3431 
Q 1906 3584 2284 3584 
Q 2666 3584 2933 3390 
Q 3200 3197 3328 2828 
z
" transform="scale(0.015625)"/>
      <path id="DejaVuSans-64" d="M 2906 2969 
L 2906 4863 
L 3481 4863 
L 3481 0 
L 2906 0 
L 2906 525 
Q 2725 213 2448 61 
Q 2172 -91 1784 -91 
Q 1150 -91 751 415 
Q 353 922 353 1747 
Q 353 2572 751 3078 
Q 1150 3584 1784 3584 
Q 2172 3584 2448 3432 
Q 2725 3281 2906 2969 
z
M 947 1747 
Q 947 1113 1208 752 
Q 1469 391 1925 391 
Q 2381 391 2643 752 
Q 2906 1113 2906 1747 
Q 2906 2381 2643 2742 
Q 2381 3103 1925 3103 
Q 1469 3103 1208 2742 
Q 947 2381 947 1747 
z
" transform="scale(0.015625)"/>
      <path id="DejaVuSans-6c" d="M 603 4863 
L 1178 4863 
L 1178 0 
L 603 0 
L 603 4863 
z
" transform="scale(0.015625)"/>
      <path id="DejaVuSans-76" d="M 191 3500 
L 800 3500 
L 1894 563 
L 2988 3500 
L 3597 3500 
L 2284 0 
L 1503 0 
L 191 3500 
z
" transform="scale(0.015625)"/>
      <path id="DejaVuSans-72" d="M 2631 2963 
Q 2534 3019 2420 3045 
Q 2306 3072 2169 3072 
Q 1681 3072 1420 2755 
Q 1159 2438 1159 1844 
L 1159 0 
L 581 0 
L 581 3500 
L 1159 3500 
L 1159 2956 
Q 1341 3275 1631 3429 
Q 1922 3584 2338 3584 
Q 2397 3584 2469 3576 
Q 2541 3569 2628 3553 
L 2631 2963 
z
" transform="scale(0.015625)"/>
      <path id="DejaVuSans-61" d="M 2194 1759 
Q 1497 1759 1228 1600 
Q 959 1441 959 1056 
Q 959 750 1161 570 
Q 1363 391 1709 391 
Q 2188 391 2477 730 
Q 2766 1069 2766 1631 
L 2766 1759 
L 2194 1759 
z
M 3341 1997 
L 3341 0 
L 2766 0 
L 2766 531 
Q 2569 213 2275 61 
Q 1981 -91 1556 -91 
Q 1019 -91 701 211 
Q 384 513 384 1019 
Q 384 1609 779 1909 
Q 1175 2209 1959 2209 
L 2766 2209 
L 2766 2266 
Q 2766 2663 2505 2880 
Q 2244 3097 1772 3097 
Q 1472 3097 1187 3025 
Q 903 2953 641 2809 
L 641 3341 
Q 956 3463 1253 3523 
Q 1550 3584 1831 3584 
Q 2591 3584 2966 3190 
Q 3341 2797 3341 1997 
z
" transform="scale(0.015625)"/>
     </defs>
     <use xlink:href="#DejaVuSans-59"/>
     <use xlink:href="#DejaVuSans-6f" x="47.833984"/>
     <use xlink:href="#DejaVuSans-75" x="109.015625"/>
     <use xlink:href="#DejaVuSans-6e" x="172.394531"/>
     <use xlink:href="#DejaVuSans-67" x="235.773438"/>
     <use xlink:href="#DejaVuSans-27" x="299.25"/>
     <use xlink:href="#DejaVuSans-73" x="326.740234"/>
     <use xlink:href="#DejaVuSans-20" x="378.839844"/>
     <use xlink:href="#DejaVuSans-6d" x="410.626953"/>
     <use xlink:href="#DejaVuSans-6f" x="508.039062"/>
     <use xlink:href="#DejaVuSans-64" x="569.220703"/>
     <use xlink:href="#DejaVuSans-75" x="632.697266"/>
     <use xlink:href="#DejaVuSans-6c" x="696.076172"/>
     <use xlink:href="#DejaVuSans-75" x="723.859375"/>
     <use xlink:href="#DejaVuSans-73" x="787.238281"/>
     <use xlink:href="#DejaVuSans-20" x="839.337891"/>
     <use xlink:href="#DejaVuSans-6f" x="871.125"/>
     <use xlink:href="#DejaVuSans-76" x="932.306641"/>
     <use xlink:href="#DejaVuSans-65" x="991.486328"/>
     <use xlink:href="#DejaVuSans-72" x="1053.009766"/>
     <use xlink:href="#DejaVuSans-20" x="1094.123047"/>
     <use xlink:href="#DejaVuSans-61" x="1125.910156"/>
     <use xlink:href="#DejaVuSans-6e" x="1187.189453"/>
     <use xlink:href="#DejaVuSans-67" x="1250.568359"/>
     <use xlink:href="#DejaVuSans-6c" x="1314.044922"/>
     <use xlink:href="#DejaVuSans-65" x="1341.828125"/>
    </g>
   </g>
   <g id="legend_1">
    <g id="patch_4">
     <path d="M 279.276937 78.82825 
L 362.216 78.82825 
Q 364.216 78.82825 364.216 76.82825 
L 364.216 48.472 
Q 364.216 46.472 362.216 46.472 
L 279.276937 46.472 
Q 277.276937 46.472 277.276937 48.472 
L 277.276937 76.82825 
Q 277.276937 78.82825 279.276937 78.82825 
z
" style="fill: #ffffff; opacity: 0.8; stroke: #cccccc; stroke-linejoin: miter"/>
    </g>
    <g id="line2d_15">
     <path d="M 281.276937 54.570437 
L 291.276937 54.570437 
L 301.276937 54.570437 
" style="fill: none; stroke: #1f77b4; stroke-width: 1.5; stroke-linecap: square"/>
    </g>
    <g id="text_15">
     <!-- MT Hybrid -->
     <g transform="translate(309.276937 58.070437)scale(0.1 -0.1)">
      <defs>
       <path id="DejaVuSans-4d" d="M 628 4666 
L 1569 4666 
L 2759 1491 
L 3956 4666 
L 4897 4666 
L 4897 0 
L 4281 0 
L 4281 4097 
L 3078 897 
L 2444 897 
L 1241 4097 
L 1241 0 
L 628 0 
L 628 4666 
z
" transform="scale(0.015625)"/>
       <path id="DejaVuSans-54" d="M -19 4666 
L 3928 4666 
L 3928 4134 
L 2272 4134 
L 2272 0 
L 1638 0 
L 1638 4134 
L -19 4134 
L -19 4666 
z
" transform="scale(0.015625)"/>
       <path id="DejaVuSans-48" d="M 628 4666 
L 1259 4666 
L 1259 2753 
L 3553 2753 
L 3553 4666 
L 4184 4666 
L 4184 0 
L 3553 0 
L 3553 2222 
L 1259 2222 
L 1259 0 
L 628 0 
L 628 4666 
z
" transform="scale(0.015625)"/>
       <path id="DejaVuSans-79" d="M 2059 -325 
Q 1816 -950 1584 -1140 
Q 1353 -1331 966 -1331 
L 506 -1331 
L 506 -850 
L 844 -850 
Q 1081 -850 1212 -737 
Q 1344 -625 1503 -206 
L 1606 56 
L 191 3500 
L 800 3500 
L 1894 763 
L 2988 3500 
L 3597 3500 
L 2059 -325 
z
" transform="scale(0.015625)"/>
       <path id="DejaVuSans-62" d="M 3116 1747 
Q 3116 2381 2855 2742 
Q 2594 3103 2138 3103 
Q 1681 3103 1420 2742 
Q 1159 2381 1159 1747 
Q 1159 1113 1420 752 
Q 1681 391 2138 391 
Q 2594 391 2855 752 
Q 3116 1113 3116 1747 
z
M 1159 2969 
Q 1341 3281 1617 3432 
Q 1894 3584 2278 3584 
Q 2916 3584 3314 3078 
Q 3713 2572 3713 1747 
Q 3713 922 3314 415 
Q 2916 -91 2278 -91 
Q 1894 -91 1617 61 
Q 1341 213 1159 525 
L 1159 0 
L 581 0 
L 581 4863 
L 1159 4863 
L 1159 2969 
z
" transform="scale(0.015625)"/>
       <path id="DejaVuSans-69" d="M 603 3500 
L 1178 3500 
L 1178 0 
L 603 0 
L 603 3500 
z
M 603 4863 
L 1178 4863 
L 1178 4134 
L 603 4134 
L 603 4863 
z
" transform="scale(0.015625)"/>
      </defs>
      <use xlink:href="#DejaVuSans-4d"/>
      <use xlink:href="#DejaVuSans-54" x="86.279297"/>
      <use xlink:href="#DejaVuSans-20" x="147.363281"/>
      <use xlink:href="#DejaVuSans-48" x="179.150391"/>
      <use xlink:href="#DejaVuSans-79" x="254.345703"/>
      <use xlink:href="#DejaVuSans-62" x="313.525391"/>
      <use xlink:href="#DejaVuSans-72" x="377.001953"/>
      <use xlink:href="#DejaVuSans-69" x="418.115234"/>
      <use xlink:href="#DejaVuSans-64" x="445.898438"/>
     </g>
    </g>
    <g id="line2d_16">
     <path d="M 281.276937 69.248562 
L 291.276937 69.248562 
L 301.276937 69.248562 
" style="fill: none; stroke: #ff7f0e; stroke-width: 1.5; stroke-linecap: square"/>
    </g>
    <g id="text_16">
     <!-- HT Hybrid -->
     <g transform="translate(309.276937 72.748562)scale(0.1 -0.1)">
      <use xlink:href="#DejaVuSans-48"/>
      <use xlink:href="#DejaVuSans-54" x="75.195312"/>
      <use xlink:href="#DejaVuSans-20" x="136.279297"/>
      <use xlink:href="#DejaVuSans-48" x="168.066406"/>
      <use xlink:href="#DejaVuSans-79" x="243.261719"/>
      <use xlink:href="#DejaVuSans-62" x="302.441406"/>
      <use xlink:href="#DejaVuSans-72" x="365.917969"/>
      <use xlink:href="#DejaVuSans-69" x="407.03125"/>
      <use xlink:href="#DejaVuSans-64" x="434.814453"/>
     </g>
    </g>
   </g>
  </g>
 </g>
 <defs>
  <clipPath id="p42e21ac9d9">
   <path d="M 369.216 174.528 
C 369.216 157.055246 365.774248 139.752393 359.087715 123.609673 
C 352.401182 107.466954 342.599903 92.798303 330.2448 80.4432 
C 317.889697 68.088097 303.221046 58.286818 287.078327 51.600285 
C 270.935607 44.913752 253.632754 41.472 236.16 41.472 
C 218.687246 41.472 201.384393 44.913752 185.241673 51.600285 
C 169.098954 58.286818 154.430303 68.088097 142.0752 80.4432 
C 129.720097 92.798303 119.918818 107.466954 113.232285 123.609673 
C 106.545752 139.752393 103.104 157.055246 103.104 174.528 
C 103.104 192.000754 106.545752 209.303607 113.232285 225.446327 
C 119.918818 241.589046 129.720097 256.257697 142.0752 268.6128 
C 154.430303 280.967903 169.098954 290.769182 185.241673 297.455715 
C 201.384393 304.142248 218.687246 307.584 236.16 307.584 
C 253.632754 307.584 270.935607 304.142248 287.078327 297.455715 
C 303.221046 290.769182 317.889697 280.967903 330.2448 268.6128 
C 342.599903 256.257697 352.401182 241.589046 359.087715 225.446327 
C 365.774248 209.303607 369.216 192.000754 369.216 174.528 
M 236.16 174.528 
C 236.16 174.528 236.16 174.528 236.16 174.528 
C 236.16 174.528 236.16 174.528 236.16 174.528 
C 236.16 174.528 236.16 174.528 236.16 174.528 
C 236.16 174.528 236.16 174.528 236.16 174.528 
C 236.16 174.528 236.16 174.528 236.16 174.528 
C 236.16 174.528 236.16 174.528 236.16 174.528 
C 236.16 174.528 236.16 174.528 236.16 174.528 
C 236.16 174.528 236.16 174.528 236.16 174.528 
C 236.16 174.528 236.16 174.528 236.16 174.528 
C 236.16 174.528 236.16 174.528 236.16 174.528 
C 236.16 174.528 236.16 174.528 236.16 174.528 
C 236.16 174.528 236.16 174.528 236.16 174.528 
C 236.16 174.528 236.16 174.528 236.16 174.528 
C 236.16 174.528 236.16 174.528 236.16 174.528 
C 236.16 174.528 236.16 174.528 236.16 174.528 
C 236.16 174.528 236.16 174.528 236.16 174.528 
M 369.216 174.528 
z
"/>
  </clipPath>
 </defs>
</svg>
