<svg id="Ebene_1" data-name="Ebene 1" xmlns="http://www.w3.org/2000/svg" xmlns:xlink="http://www.w3.org/1999/xlink" viewBox="0 0 507.48 429.73"><defs><style>.cls-1{fill:none;}.cls-2{clip-path:url(#clip-path);}.cls-3{fill:#ffd966;}.cls-4{fill:#cdae52;}.cls-10,.cls-11,.cls-4,.cls-5,.cls-6,.cls-7{fill-rule:evenodd;}.cls-5,.cls-8{fill:#ffe084;}.cls-6{fill:#767171;}.cls-7{fill:#adaaaa;}.cls-9{stroke:#fff;stroke-miterlimit:10;}.cls-10{fill:#9dc3e6;}.cls-10,.cls-11{opacity:0.64;}.cls-11{fill:#c4dbf0;}</style><clipPath id="clip-path" transform="translate(-273.96 -47.39)"><rect class="cls-1" width="960" height="540"/></clipPath></defs><title>Homopy_mit_w</title><g class="cls-2"><rect class="cls-3" y="197.11" width="139.02" height="138.06"/><polygon class="cls-4" points="139.02 197.11 185.04 151.09 185.04 289.15 139.02 335.17 139.02 197.11"/><polygon class="cls-5" points="0 197.11 46.02 151.09 185.04 151.09 139.02 197.11 0 197.11"/><g class="cls-2"><path class="cls-6" d="M310.18,99.49c.24,2.21,4.15,3.59,8.75,3.1s8.12-2.69,7.88-4.89l40.48,374.43c.24,2.21-3.29,4.4-7.88,4.89s-8.51-.89-8.75-3.1Z" transform="translate(-273.96 -47.39)"/><path class="cls-7" d="M310.18,99.49c-.24-2.21,3.29-4.4,7.88-4.89s8.51.89,8.75,3.1-3.29,4.4-7.88,4.89-8.51-.89-8.75-3.1" transform="translate(-273.96 -47.39)"/></g><rect class="cls-8" x="318.5" y="217.77" width="35.85" height="41.8" transform="translate(-298.99 -7.45) rotate(-6.55)"/><g class="cls-2"><path class="cls-6" d="M323.07,218.78l16.5-1.83c.31,2.75-3.14,5.39-7.7,5.9s-8.5-1.32-8.81-4.07" transform="translate(-273.96 -47.39)"/></g><path class="cls-9" d="M536.92,303h-7.74V274.48H502.41V303h-7.74V244.78h7.74V267.6h26.77V244.78h7.74Z" transform="translate(-273.96 -47.39)"/><path class="cls-9" d="M584,281.17q0,11-5.32,17t-14.15,6q-9.11,0-14.32-6.2T545,281.17q0-10.94,5.37-17t14.17-6.06q8.83,0,14.15,6T584,281.17Zm-7.58,0q0-8.48-3.09-12.6a11.5,11.5,0,0,0-17.65,0q-3.11,4.12-3.11,12.6,0,8.21,3.11,12.45a11.34,11.34,0,0,0,17.63.08Q576.47,289.53,576.47,281.17Z" transform="translate(-273.96 -47.39)"/><path class="cls-9" d="M641.15,303V277.73q0-3-.23-5.57a11.17,11.17,0,0,0-1-4,5,5,0,0,0-2.23-2.31,8.63,8.63,0,0,0-3.91-.74,10.41,10.41,0,0,0-4.87,1.39,25.44,25.44,0,0,0-5.37,4q0,.67.1,1.58t.06,2.17V303h-7.35V277.73q0-3-.23-5.57a11.19,11.19,0,0,0-1-4,5,5,0,0,0-2.23-2.31,8.64,8.64,0,0,0-3.91-.74,10.16,10.16,0,0,0-5,1.49,26.82,26.82,0,0,0-5.08,3.79V303h-7.35V259.32h7.35v4.85a26.59,26.59,0,0,1,5.73-4.47,12.57,12.57,0,0,1,6.23-1.58,13.27,13.27,0,0,1,6.86,1.76,11,11,0,0,1,4.55,5.78A29.38,29.38,0,0,1,628.8,260a13,13,0,0,1,6.88-1.92,14.27,14.27,0,0,1,5.12.88,10.11,10.11,0,0,1,4,2.83,13.78,13.78,0,0,1,2.72,5,24.68,24.68,0,0,1,1,7.46V303Z" transform="translate(-273.96 -47.39)"/><path class="cls-9" d="M694.73,281.17q0,11-5.32,17t-14.15,6q-9.11,0-14.32-6.2t-5.22-16.82q0-10.94,5.37-17t14.17-6.06q8.83,0,14.15,6T694.73,281.17Zm-7.58,0q0-8.48-3.09-12.6a11.5,11.5,0,0,0-17.65,0q-3.11,4.12-3.11,12.6,0,8.21,3.11,12.45a11.34,11.34,0,0,0,17.63.08Q687.15,289.53,687.15,281.17Z" transform="translate(-273.96 -47.39)"/><path class="cls-9" d="M739.59,262.33a19.17,19.17,0,0,1-1.35,7.17,16.88,16.88,0,0,1-3.73,5.76,19.88,19.88,0,0,1-7.07,4.49,29.6,29.6,0,0,1-10.28,1.52H710.6V303h-7.74V244.78h14.62a38.77,38.77,0,0,1,8.79.86,18.78,18.78,0,0,1,6.41,2.77,15.88,15.88,0,0,1,5.08,5.65A17.26,17.26,0,0,1,739.59,262.33Zm-8.05.2a12.32,12.32,0,0,0-1-5.24,8.73,8.73,0,0,0-3.15-3.63,12.22,12.22,0,0,0-4.28-1.72,30.53,30.53,0,0,0-6.08-.51H710.6v23.25h5.28a30.7,30.7,0,0,0,7.58-.76,10.22,10.22,0,0,0,4.81-2.72,11,11,0,0,0,2.5-3.83A13.69,13.69,0,0,0,731.54,262.52Z" transform="translate(-273.96 -47.39)"/><path class="cls-9" d="M780.71,259.32l-23.49,59.76h-7.86l7.82-18.21-15.87-41.54h7.93l11.92,32.32L773,259.32Z" transform="translate(-273.96 -47.39)"/><g class="cls-2"><path class="cls-6" d="M403.35,51c-.1,2.22,3.55,4.19,8.17,4.4S420,54,420.05,51.81L402.67,426.15c-.1,2.22-3.93,3.84-8.54,3.63s-8.27-2.18-8.17-4.4Z" transform="translate(-273.96 -47.39)"/><path class="cls-7" d="M403.35,51c.1-2.22,3.93-3.84,8.54-3.62s8.27,2.18,8.17,4.4-3.93,3.84-8.54,3.63-8.27-2.18-8.17-4.4" transform="translate(-273.96 -47.39)"/></g><rect class="cls-8" x="379.26" y="218.12" width="41.8" height="23.44" transform="translate(-119.35 573.17) rotate(-87.72)"/><g class="cls-2"><path class="cls-6" d="M396.22,208.38l16.59.72c-.12,2.77-3.93,4.85-8.51,4.65s-8.2-2.6-8.08-5.37" transform="translate(-273.96 -47.39)"/></g><g class="cls-2"><path class="cls-10" d="M405.66,120.53c-.92,3.42,5.84,8.22,15.11,10.71s17.52,1.74,18.44-1.68L362.51,414.4c-.92,3.42-9.18,4.17-18.44,1.68s-16-7.29-15.11-10.71Z" transform="translate(-273.96 -47.39)"/><path class="cls-11" d="M405.66,120.53c.92-3.42,9.18-4.17,18.44-1.68s16,7.29,15.11,10.71-9.18,4.17-18.44,1.68-16-7.29-15.11-10.71" transform="translate(-273.96 -47.39)"/></g><rect class="cls-8" x="375.59" y="221.44" width="34.28" height="39.97" transform="translate(-213.53 513.56) rotate(-75.46)"/><g class="cls-2"><path class="cls-10" d="M412.47,228.86l-33.66-8.92c-1.29,4.85,5.21,10.78,14.5,13.24s17.87.53,19.16-4.32" transform="translate(-273.96 -47.39)"/></g><rect class="cls-3" y="197.53" width="138.6" height="137.76"/></g></svg>